<svg width="341" height="227" viewBox="0 0 341 227" fill="none" xmlns="http://www.w3.org/2000/svg">
<path opacity="0.05" d="M76.8953 197.744C91.2829 197.744 102.946 196.147 102.946 194.177C102.946 192.207 91.2829 190.61 76.8953 190.61C62.5078 190.61 50.8444 192.207 50.8444 194.177C50.8444 196.147 62.5078 197.744 76.8953 197.744Z" fill="black"/>
<path d="M63.008 83.782C61.5407 87.1008 61.2882 90.9411 62.3084 94.4233C63.3285 97.9055 65.6131 101.003 68.639 103.005C68.0547 101.239 68.5622 99.2984 69.2909 97.5863C70.0196 95.8743 70.9757 94.2322 71.3335 92.4062C71.6921 90.5766 71.4193 88.6639 70.8009 86.9051C70.1826 85.1463 69.2305 83.5241 68.2077 81.9656C67.6565 81.1257 66.0385 78.951 64.7927 79.9339C64.4031 80.2413 64.321 80.9817 64.1398 81.4158C63.803 82.2221 63.3617 82.983 63.008 83.782Z" fill="#38322E"/>
<path d="M63.1128 75.5696C62.7447 75.6014 62.3597 75.7394 62.1522 76.0454C61.9029 76.4132 61.9774 76.908 62.1159 77.3298C62.3851 78.1506 62.8631 78.902 63.4919 79.4945C62.5994 79.7573 62.2207 80.9713 62.6729 81.7844C63.1251 82.5975 64.1834 82.9489 65.0918 82.7474C64.784 83.5287 65.2666 84.4885 66.0393 84.8172C66.812 85.1459 67.7586 84.8934 68.3629 84.31C68.8705 84.8893 69.4743 85.3833 70.1426 85.7656C70.6274 86.043 71.1986 86.2663 71.7357 86.1124C72.403 85.9213 72.7949 85.1863 72.8135 84.4925C72.8321 83.7984 72.5606 83.1333 72.2936 82.4927C72.9333 82.5748 73.785 82.5276 73.9598 81.9066C74.0202 81.6932 73.9725 81.4648 73.9058 81.2533C73.6547 80.4615 73.1376 79.7791 72.557 79.1853C71.2794 77.8773 69.6418 76.9312 67.8808 76.4477C67.0481 76.2188 66.2273 76.1848 65.3797 76.0731C64.6024 75.9705 63.9137 75.5006 63.1128 75.5696Z" fill="#6ABAD2"/>
<path d="M61.5007 191.694C61.0785 191.535 60.7421 191.215 60.3848 190.94C59.3647 190.155 58.0871 189.733 56.8023 189.702C55.1892 190.479 53.5975 191.244 53.1203 191.766C52.403 192.552 52.0889 193.782 53.1544 194.364C54.8446 195.287 57.3829 195.28 59.2362 195.036C61.4176 194.748 63.5292 194.071 65.717 193.819C67.0413 193.667 70.9412 193.981 71.0361 191.976C71.042 191.85 71.0243 191.379 70.998 190.713C68.3035 191.298 65.5627 191.67 62.8091 191.811C62.3683 191.835 61.9134 191.85 61.5007 191.694Z" fill="#6ABAD2"/>
<path d="M70.928 183.055C71.2254 180.658 71.5559 178.797 71.8882 177.265C73.3378 170.581 74.8297 170.138 73.8472 158.626C73.6352 156.142 76.5358 143.528 76.7515 140.465L64.0154 138.745C64.0667 141.558 64.5852 157.256 64.6701 163.708C64.6805 164.479 64.5965 171.169 64.5016 176.121C64.4644 178.068 64.4249 179.746 64.389 180.69C64.3377 182.042 64.2574 183.42 63.7648 184.68C63.2105 186.098 61.69 186.839 60.4915 187.691C60.7175 188.115 61.2424 188.378 61.7336 188.505C63.3285 188.92 65.0165 188.657 66.6236 188.294C68.0601 187.97 69.4775 187.563 70.8704 187.086C70.8309 185.473 70.825 183.883 70.928 183.055Z" fill="#F2B27E"/>
<path d="M61.7337 188.505C61.2425 188.378 60.7176 188.115 60.4915 187.691C60.4307 187.734 60.3671 187.776 60.3081 187.82C59.6639 188.3 58.4876 188.887 57.2645 189.479C57.1106 189.553 56.9562 189.628 56.8019 189.702C58.0867 189.734 59.3647 190.156 60.3844 190.94C60.7417 191.215 61.0786 191.535 61.5003 191.694C61.913 191.85 62.3679 191.835 62.8083 191.812C65.5623 191.671 68.3026 191.299 70.9971 190.714C70.9921 190.595 70.9871 190.472 70.9821 190.342C70.9453 189.43 70.899 188.253 70.87 187.087C69.4771 187.564 68.0597 187.971 66.6233 188.295C65.0166 188.657 63.3286 188.92 61.7337 188.505Z" fill="#418899"/>
<path d="M66.5597 159.079C67.2775 158.478 67.8536 157.71 68.23 156.853" stroke="#333333" stroke-width="0.5" stroke-miterlimit="10" stroke-linecap="round" stroke-linejoin="round"/>
<path d="M93.3031 191.694C93.7253 191.535 94.0617 191.215 94.419 190.94C95.4392 190.155 96.7167 189.733 98.0016 189.702C99.6146 190.479 101.206 191.244 101.683 191.766C102.401 192.552 102.715 193.782 101.649 194.364C99.9592 195.287 97.4209 195.28 95.5677 195.036C93.3857 194.748 91.2746 194.071 89.0868 193.819C87.7625 193.667 83.8626 193.981 83.7677 191.976C83.7618 191.85 83.7795 191.379 83.8059 190.713C86.5004 191.298 89.2412 191.67 91.9947 191.811C92.4355 191.835 92.8904 191.85 93.3031 191.694Z" fill="#6ABAD2"/>
<path d="M83.8757 183.055C83.5783 180.658 83.2478 178.797 82.9155 177.265C81.4659 170.581 79.974 170.138 80.9565 158.626C81.1685 156.142 78.2679 143.528 78.0522 140.465L90.7883 138.745C90.737 141.558 90.2185 157.256 90.1332 163.708C90.1227 164.479 90.2067 171.169 90.3016 176.121C90.3388 178.068 90.3783 179.746 90.4142 180.69C90.4655 182.042 90.5459 183.42 91.0385 184.68C91.5928 186.098 93.1132 186.839 94.3118 187.691C94.0857 188.115 93.5609 188.378 93.0697 188.505C91.4748 188.92 89.7868 188.657 88.1796 188.294C86.7432 187.97 85.3258 187.563 83.9329 187.086C83.9729 185.473 83.9788 183.883 83.8757 183.055Z" fill="#F2B27E"/>
<path d="M93.0701 188.505C93.5613 188.378 94.0861 188.115 94.3122 187.691C94.373 187.734 94.4366 187.776 94.4956 187.82C95.1398 188.3 96.3162 188.887 97.5392 189.479C97.6931 189.553 97.8475 189.628 98.0019 189.702C96.717 189.734 95.439 190.156 94.4193 190.94C94.062 191.215 93.7252 191.535 93.3034 191.694C92.8907 191.85 92.4358 191.835 91.9954 191.812C89.2419 191.671 86.5011 191.299 83.8066 190.714C83.8112 190.595 83.8162 190.472 83.8216 190.342C83.8584 189.43 83.9047 188.253 83.9338 187.087C85.3266 187.564 86.744 187.971 88.1805 188.295C89.7867 188.657 91.4752 188.92 93.0701 188.505Z" fill="#418899"/>
<path d="M88.244 159.079C87.5262 158.478 86.9501 157.71 86.5737 156.853" stroke="#333333" stroke-width="0.5" stroke-miterlimit="10" stroke-linecap="round" stroke-linejoin="round"/>
<path d="M59.2784 128.438L56.8281 127.958C57.5386 124.332 63.9414 92.3931 69.8806 87.4663L71.4751 89.3885C70.2443 90.4091 67.5598 94.4992 63.4107 110.421C61.0126 119.623 59.2952 128.351 59.2784 128.438Z" fill="#AD7344"/>
<path d="M76.6394 86.7457C67.301 87.4926 62.5962 88.6911 60.8983 92.0226C59.2003 95.354 65.9808 110.963 65.9808 110.963L65.7697 125.583C65.7697 125.583 68.5936 129.573 76.6398 129.573C84.6861 129.573 89.7527 126.455 89.7527 126.455L87.0913 107.948L88.0561 88.0837C88.0561 88.0846 85.8501 86.0093 76.6394 86.7457Z" fill="#F1CC4B"/>
<path d="M70.9533 88.7765C70.8866 90.0804 75.5251 91.8692 78.0598 91.9986C80.5945 92.128 81.0943 90.6016 81.1606 89.2977C81.2274 87.9938 78.9705 87.3188 76.1521 87.1748C73.3332 87.0314 71.0201 87.4727 70.9533 88.7765Z" fill="#F2B27E"/>
<path d="M110.95 51.6915C110.757 51.3669 110.363 51.1744 109.989 51.222C110.091 50.8838 109.982 50.4911 109.719 50.2541C109.457 50.0176 109.055 49.949 108.729 50.0852C108.716 49.6589 108.443 49.2503 108.053 49.0764C107.664 48.9021 107.177 48.9711 106.851 49.2462C106.941 48.8231 106.605 48.3877 106.187 48.276C105.769 48.1639 105.315 48.3223 104.979 48.5934C104.642 48.8644 104.403 49.2367 104.184 49.6094C103.841 50.1942 103.527 50.8112 103.411 51.4795C103.312 52.0506 103.362 52.6362 103.412 53.2137C103.503 54.2584 103.603 55.3017 103.7 56.345C103.743 56.8081 103.628 58.3149 103.568 58.5877C102.739 59.9597 101.539 62.0263 101.254 62.5166C99.3158 65.8522 97.315 69.5795 95.6511 73.0622C92.6193 79.4091 85.5759 84.9996 85.5759 84.9996L91.7326 91.4828C91.7326 91.4828 97.0217 84.1284 100.998 76.3242C102.799 72.7898 107.198 60.9213 107.198 60.9213C107.931 59.8267 108.872 58.8406 109.52 57.6943C110.197 56.4975 109.998 55.136 110.583 53.9133C110.639 53.7967 110.7 53.6755 110.694 53.5461C110.69 53.4321 110.633 53.3236 110.639 53.2101C110.647 53.0335 110.797 52.9023 110.901 52.7588C111.123 52.4542 111.142 52.0161 110.95 51.6915Z" fill="#F2B27E"/>
<path d="M110.711 53.0081C110.447 53.3249 110.009 53.754 109.654 53.9633C109.298 54.1726 108.884 54.2951 108.473 54.2611C108.358 54.2516 108.239 54.228 108.143 54.1626C108.047 54.0972 107.978 53.9819 107.996 53.867" stroke="black" stroke-width="0.4174" stroke-miterlimit="10" stroke-linecap="round" stroke-linejoin="round"/>
<path d="M109.946 51.2501C109.71 51.7359 109.475 52.2221 109.238 52.7079C109.149 52.8927 109.057 53.0802 108.919 53.2314C108.815 53.3449 108.689 53.4343 108.561 53.5192C108.301 53.6913 108.033 53.8488 107.756 53.9909C107.637 54.0522 107.506 54.1121 107.374 54.0881C107.277 54.0704 107.18 53.9841 107.136 53.896" stroke="black" stroke-width="0.4174" stroke-miterlimit="10" stroke-linecap="round" stroke-linejoin="round"/>
<path d="M103.727 51.8067C103.805 51.5248 104.027 51.3082 104.245 51.113C104.882 50.541 105.565 50.0198 106.285 49.5563C106.439 49.4573 106.603 49.3579 106.786 49.3451C107.061 49.3261 107.307 49.5059 107.516 49.6856C107.791 49.9217 108.063 50.1801 108.406 50.2967C108.582 50.3567 108.77 50.3757 108.95 50.4261C109.129 50.4761 109.309 50.5655 109.408 50.7239C109.538 50.9341 109.488 51.2224 109.336 51.4186C109.185 51.6147 108.952 51.7318 108.716 51.8067C108.349 51.9234 107.953 51.9516 107.572 51.888C107.415 51.8617 107.069 51.8204 107.053 51.8267C107.04 51.8322 106.508 52.2398 106.503 52.2576C106.492 52.2957 106.516 52.3338 106.539 52.3665C107.128 53.2087 107.294 54.2801 107.115 55.2916" stroke="black" stroke-width="0.4174" stroke-miterlimit="10" stroke-linecap="round" stroke-linejoin="round"/>
<path d="M107.893 51.9185C107.893 51.9185 107.743 52.2054 107.641 52.3475C107.544 52.4832 107.417 52.594 107.291 52.7034C107.16 52.8169 107.033 52.9254 106.903 53.0389" stroke="black" stroke-width="0.4174" stroke-miterlimit="10" stroke-linecap="round" stroke-linejoin="round"/>
<path d="M105.052 49.2671C105.051 49.2857 105.046 49.3039 105.041 49.322C104.966 49.5754 104.891 49.8291 104.816 50.0825C104.773 50.2296 104.729 50.3767 104.669 50.5179C104.628 50.6146 104.579 50.7113 104.575 50.8157" stroke="black" stroke-width="0.4174" stroke-miterlimit="10" stroke-linecap="round" stroke-linejoin="round"/>
<path d="M81.2947 86.6013L89.7527 80.1245C89.7527 80.1245 91.8134 80.8777 93.6594 85.1004C95.5053 89.323 95.025 92.6962 95.025 92.6962L87.6552 96.3428L81.2947 86.6013Z" fill="#F1CC4B"/>
<path d="M91.6426 67.2605C92.1397 65.8513 92.5697 64.3804 92.4861 62.8885C92.3776 60.9545 91.3934 59.1362 90.0205 57.7692C88.6476 56.4027 86.9092 55.4529 85.1055 54.746C81.3432 53.2714 77.1945 52.7966 73.1961 53.3818C72.0766 53.5457 70.942 53.8022 69.9909 54.4151C68.9567 55.082 68.1976 56.1625 67.9206 57.3615C66.5332 57.1867 65.1363 57.8745 64.1888 58.9029C63.2413 59.9312 62.6874 61.2623 62.3015 62.6061C60.5745 68.6234 62.0636 75.4366 66.0411 80.2708C66.6926 81.063 67.4104 81.8085 68.2384 82.4132C70.4158 84.0022 73.3015 84.6787 75.8829 84.0059C78.5647 83.3072 81.004 81.9878 83.1301 80.2163C87.2656 76.7705 89.8711 72.2818 91.6426 67.2605Z" fill="#38322E"/>
<path d="M86.9111 71.8037L91.0462 72.9165" stroke="#333333" stroke-width="0.5" stroke-miterlimit="10" stroke-linecap="round" stroke-linejoin="round"/>
<path d="M72.4865 87.3813C72.4865 88.7946 73.1316 90.0821 76.394 90.0821C79.6565 90.0821 80.3016 88.84 80.3016 87.3813C80.3016 85.9226 80.7815 80.3315 80.7815 80.3315H72.0066C72.0066 80.3315 72.4865 85.968 72.4865 87.3813Z" fill="#F2B27E"/>
<mask id="mask0_17_3189" style="mask-type:luminance" maskUnits="userSpaceOnUse" x="72" y="80" width="9" height="11">
<path d="M72.4865 87.3813C72.4865 88.7946 73.1316 90.0821 76.394 90.0821C79.6565 90.0821 80.3016 88.84 80.3016 87.3813C80.3016 85.9226 80.7815 80.3315 80.7815 80.3315H72.0066C72.0066 80.3315 72.4865 85.968 72.4865 87.3813Z" fill="white"/>
</mask>
<g mask="url(#mask0_17_3189)">
<path opacity="0.7" d="M78.6563 86.2767C82.8013 86.2767 86.1614 83.0591 86.1614 79.0899C86.1614 75.1207 82.8013 71.9031 78.6563 71.9031C74.5114 71.9031 71.1512 75.1207 71.1512 79.0899C71.1512 83.0591 74.5114 86.2767 78.6563 86.2767Z" fill="#F2B27E"/>
</g>
<path d="M66.1246 70.4132C66.0788 66.9046 67.0363 63.3712 69.0003 60.6676C70.8898 58.0671 73.7918 56.5298 77.2354 56.4345C80.6789 56.3392 83.3476 57.4256 85.48 59.5035C87.8304 61.794 88.984 65.199 88.7075 68.4687C88.5863 69.9029 88.2094 71.3093 88.1373 72.7472C88.0065 75.3481 88.8646 78.049 88.007 80.5078C87.2674 82.6285 85.3143 84.1757 83.1691 84.8399C81.024 85.5046 78.7059 85.3829 76.5012 84.9552C73.3773 84.3487 70.7795 82.1291 68.9412 79.574C67.108 77.0252 66.1677 73.7305 66.1246 70.4132Z" fill="#F2B27E"/>
<path d="M71.3492 76.7833C71.3492 78.0526 72.378 79.0814 73.6478 79.0814C74.9172 79.0814 75.946 78.0526 75.946 76.7833C75.946 75.5139 74.9172 74.4851 73.6478 74.4851C72.3785 74.4851 71.3492 75.5139 71.3492 76.7833Z" fill="#E89777"/>
<path d="M83.4592 76.7833C83.4592 78.0526 84.488 79.0814 85.7574 79.0814C87.0268 79.0814 88.056 78.0526 88.056 76.7833C88.056 75.5139 87.0272 74.4851 85.7574 74.4851C84.4885 74.4851 83.4592 75.5139 83.4592 76.7833Z" fill="#E89777"/>
<path d="M80.0663 81.765C79.359 81.8104 78.6394 81.6951 78.0447 81.4404" stroke="#333333" stroke-width="0.5" stroke-miterlimit="10" stroke-linecap="round" stroke-linejoin="round"/>
<path d="M76.8853 78.8071C76.7041 79.7859 77.7565 80.7316 79.2361 80.9196C80.7157 81.1075 82.0618 80.466 82.2429 79.4868C82.4241 78.5079 81.1955 78.5143 79.716 78.3263C78.2364 78.1388 77.0664 77.8283 76.8853 78.8071Z" fill="#C9413A"/>
<mask id="mask1_17_3189" style="mask-type:luminance" maskUnits="userSpaceOnUse" x="76" y="78" width="7" height="3">
<path d="M76.8853 78.8071C76.7041 79.7859 77.7565 80.7316 79.2361 80.9196C80.7157 81.1075 82.0618 80.466 82.2429 79.4868C82.4241 78.5079 81.1955 78.5143 79.716 78.3263C78.2364 78.1388 77.0664 77.8283 76.8853 78.8071Z" fill="white"/>
</mask>
<g mask="url(#mask1_17_3189)">
<path d="M74.5349 79.6112C74.1412 80.6023 75.3693 81.8485 77.2784 82.3947C79.1874 82.9408 81.0543 82.5799 81.4484 81.5888C81.8424 80.5977 80.6139 79.3515 78.7048 78.8053C76.7958 78.2596 74.9289 78.6201 74.5349 79.6112Z" fill="#F96C4B"/>
</g>
<mask id="mask2_17_3189" style="mask-type:luminance" maskUnits="userSpaceOnUse" x="76" y="78" width="7" height="3">
<path d="M76.8853 78.8071C76.7041 79.7859 77.7565 80.7316 79.2361 80.9196C80.7157 81.1075 82.0618 80.466 82.2429 79.4868C82.4241 78.5079 81.1955 78.5143 79.716 78.3263C78.2364 78.1388 77.0664 77.8283 76.8853 78.8071Z" fill="white"/>
</mask>
<g mask="url(#mask2_17_3189)">
<path d="M77.018 77.9835C76.9004 78.6504 78.0554 79.024 79.53 79.2011C81.0046 79.3786 82.1923 79.4354 82.3098 78.7684C82.4274 78.1015 81.2752 77.8418 79.8006 77.6643C78.3264 77.4873 77.1356 77.3166 77.018 77.9835Z" fill="white"/>
</g>
<path d="M76.8853 78.8071C76.7041 79.7859 77.7565 80.7316 79.2361 80.9196C80.7157 81.1075 82.0618 80.466 82.2429 79.4868C82.4241 78.5079 81.1955 78.5143 79.716 78.3263C78.2364 78.1388 77.0664 77.8283 76.8853 78.8071Z" stroke="#333333" stroke-width="0.5" stroke-miterlimit="10" stroke-linecap="round" stroke-linejoin="round"/>
<path d="M81.4988 70.4585C81.3635 71.7102 81.5801 72.9982 82.1163 74.1377C82.4123 74.7665 82.8141 75.3957 82.7736 76.0895C82.7464 76.5589 82.5003 77.0111 82.1217 77.2894C81.7426 77.5677 81.2378 77.6671 80.7815 77.5527" stroke="#333333" stroke-width="0.5" stroke-miterlimit="10" stroke-linecap="round" stroke-linejoin="round"/>
<path d="M78.3204 73.8272C78.3204 73.8272 77.0088 72.1783 74.7955 72.916" stroke="#333333" stroke-width="0.5" stroke-miterlimit="10" stroke-linecap="round" stroke-linejoin="round"/>
<path d="M78.7625 73.4232C78.7625 73.4232 78.4515 72.8312 77.9617 72.6064" stroke="#333333" stroke-width="0.5" stroke-miterlimit="10" stroke-linecap="round" stroke-linejoin="round"/>
<path d="M82.7769 72.9165C82.7769 73.5308 83.2749 74.0288 83.8892 74.0288C84.5034 74.0288 85.0015 73.5308 85.0015 72.9165C85.0015 72.3022 84.5034 71.8042 83.8892 71.8042C83.2749 71.8037 82.7769 72.3018 82.7769 72.9165Z" fill="#38322E"/>
<path d="M76.1344 67.217C77.6026 66.6858 78.6395 67.5134 78.7621 68.327C78.7621 68.327 77.85 68.026 76.4635 68.2353C75.0765 68.445 73.9515 69.0534 73.9515 69.0534C73.9515 69.0534 74.6657 67.7486 76.1344 67.217Z" fill="#38322E"/>
<path d="M84.9085 67.217C83.4402 66.6858 82.4033 67.5134 82.2803 68.327C82.2803 68.327 83.1924 68.026 84.5789 68.2353C85.9658 68.445 87.0909 69.0534 87.0909 69.0534C87.0909 69.0534 86.3772 67.7486 84.9085 67.217Z" fill="#38322E"/>
<path d="M75.3966 66.1623C78.2119 64.6386 81.2156 63.1572 83.0892 60.5617C81.8811 63.238 79.7142 65.469 77.0742 66.7547C80.0497 67.6123 83.3307 68.1462 86.175 66.9214C87.7845 66.2286 89.2541 64.7499 89.1769 62.9992C89.1401 62.1671 88.7588 61.3866 88.2943 60.6956C86.6213 58.2077 83.8478 56.6351 80.9708 55.7911C79.4686 55.3507 77.9018 55.0842 76.3378 55.165C73.3886 55.3171 70.5288 56.7622 68.657 59.0467C67.4017 60.5785 66.5949 62.4408 66.1082 64.3603C65.4722 66.8691 65.1249 70.6764 66.6703 72.9668C67.6382 74.4015 68.336 72.3498 68.7796 71.6084C69.4588 70.4734 70.3936 69.5151 71.421 68.691C72.6486 67.7063 74.016 66.9095 75.3966 66.1623Z" fill="#38322E"/>
<path d="M76.2289 76.238C78.7433 76.238 80.7816 74.4275 80.7816 72.1942C80.7816 69.9609 78.7433 68.1504 76.2289 68.1504C73.7145 68.1504 71.6761 69.9609 71.6761 72.1942C71.6761 74.4275 73.7145 76.238 76.2289 76.238Z" stroke="#333333" stroke-width="0.5" stroke-miterlimit="10" stroke-linecap="round" stroke-linejoin="round"/>
<path d="M86.5683 76.238C89.0827 76.238 91.121 74.4275 91.121 72.1942C91.121 69.9609 89.0827 68.1504 86.5683 68.1504C84.0539 68.1504 82.0156 69.9609 82.0156 72.1942C82.0156 74.4275 84.0539 76.238 86.5683 76.238Z" stroke="#333333" stroke-width="0.5" stroke-miterlimit="10" stroke-linecap="round" stroke-linejoin="round"/>
<path d="M80.7676 72.5021C80.7676 72.5021 81.4713 71.9668 82.0297 72.5021" stroke="#333333" stroke-width="0.5" stroke-miterlimit="10" stroke-linecap="round" stroke-linejoin="round"/>
<path d="M67.6151 71.8037L71.7501 72.9165" stroke="#333333" stroke-width="0.5" stroke-miterlimit="10" stroke-linecap="round" stroke-linejoin="round"/>
<path d="M64.1552 74.4429C65.0373 76.815 67.1997 78.2329 68.2838 77.7053C69.1255 77.2958 69.2581 75.7164 68.7678 73.8214C68.2775 71.9264 66.8615 69.5156 65.4327 69.8756C64.0035 70.2357 63.273 72.0703 64.1552 74.4429Z" fill="#F2B27E"/>
<path opacity="0.7" d="M65.365 71.2131C66.0733 71.5005 66.6321 72.0753 67.0525 72.7136C67.6173 73.5712 67.9664 74.5696 68.06 75.5924C67.832 75.4244 67.5197 75.3781 67.2527 75.473C66.9658 75.5747 66.8369 75.7944 66.6966 76.041C66.0651 75.7772 65.5144 74.8588 65.2265 74.2713C64.8892 73.583 64.7063 72.8176 64.714 72.0503C64.7185 71.6494 64.8293 70.9957 65.365 71.2131Z" fill="#F2B27E"/>
<path d="M66.1229 88.3478C66.1229 88.3478 69.2001 100.891 68.7352 103.419C68.2707 105.948 64.7141 108.619 64.7141 108.619C64.7141 108.619 64.9352 111.787 64.991 116.362C65.0469 120.937 60.6254 150.094 60.6254 150.094C60.6254 150.094 66.6835 155.35 77.4356 155.35C88.1877 155.35 92.6982 152.063 92.6982 152.063C92.6982 152.063 88.4992 119.561 88.7829 112.808C89.0667 106.055 87.5149 99.2366 87.5149 99.2366L82.7774 85.4663L80.3262 86.5881C80.3262 86.5881 83.7816 97.7815 83.2795 98.971C82.7774 100.16 74.5682 100.806 73.6484 99.8885C72.7285 98.971 69.053 87.6564 69.053 87.6564C69.053 87.6564 68.3052 87.6414 67.6038 87.809C66.9015 87.9765 66.1229 88.3478 66.1229 88.3478Z" fill="#DE582A"/>
<path d="M81.0267 103.886C78.5275 104.172 76.0604 103.775 76.0604 103.775C76.0604 103.775 77.8737 109.69 82.1395 109.201C86.4053 108.713 85.3997 102.705 85.3997 102.705C85.3997 102.705 83.526 103.6 81.0267 103.886Z" fill="#BF300C"/>
<path d="M79.9041 130.08L77.6213 129.068C84.5848 113.361 80.3721 86.8614 80.3258 86.5877L82.777 85.4658C82.7888 85.5362 83.7099 92.5151 83.9769 101.46C84.3369 113.543 82.9667 123.172 79.9041 130.08Z" fill="#AD7344"/>
<path d="M73.4708 135.131C71.3184 135.919 69.8003 137.804 68.1313 139.375C67.1503 140.298 66.0516 141.153 64.7599 141.535C63.9173 141.784 63.0252 141.821 62.1476 141.782C58.7849 141.63 55.4539 140.317 53.0177 137.994C51.4205 136.471 50.2369 134.51 49.6345 132.392C47.9197 137.385 48.248 143.146 50.4085 145.192C53.7277 148.336 73.4168 152.32 76.3038 149.418C78.1162 147.596 79.7637 141.903 80.2963 136.963C78.6442 135.105 75.828 134.268 73.4708 135.131Z" fill="#CC9864"/>
<path d="M62.1471 141.782C63.0252 141.821 63.9168 141.784 64.7595 141.535C66.0515 141.153 67.1502 140.299 68.1309 139.375C69.7998 137.804 71.3179 135.92 73.4704 135.131C75.8275 134.268 78.6432 135.105 80.2953 136.962C80.6109 134.034 80.5351 131.369 79.8686 129.933C78.0771 126.073 60.2903 121.291 54.1894 125.713C52.0597 127.256 50.5533 129.714 49.6335 132.392C50.236 134.51 51.42 136.471 53.0168 137.994C55.4538 140.317 58.7844 141.63 62.1471 141.782Z" fill="#AD7344"/>
<path d="M76.8476 139.4C75.1887 139.129 74.1858 139.482 74.1858 139.482C74.1858 139.482 71.2575 146.706 74.4392 147.633C77.6208 148.561 78.7812 140.541 78.7812 140.541C78.7812 140.541 78.5066 139.672 76.8476 139.4Z" fill="#CC9864"/>
<path d="M59.7437 141.186C59.7437 142.229 59.1603 143.075 58.4407 143.075C57.7211 143.075 57.1377 142.229 57.1377 141.186C57.1377 140.143 57.7211 139.298 58.4407 139.298C59.1603 139.297 59.7437 140.143 59.7437 141.186Z" fill="#F1CC4B"/>
<path d="M50.2578 119.595C50.2106 119.782 50.1638 119.969 50.1175 120.157C49.6921 121.885 49.2976 123.624 48.4976 125.226C47.7703 126.683 46.5967 127.796 45.5988 129.067C45.055 129.759 44.5074 130.458 44.1138 131.245C43.7615 131.95 43.4573 132.639 43.2712 133.412C43.0514 134.327 42.8313 135.241 42.6115 136.156C42.5425 136.443 42.4726 136.737 42.4967 137.031C42.5212 137.326 42.6551 137.627 42.9093 137.778C42.8735 138.104 42.8381 138.435 42.9016 138.756C42.9656 139.077 43.1459 139.392 43.4396 139.536C43.5018 139.567 43.5708 139.591 43.6167 139.644C43.6557 139.689 43.673 139.748 43.7011 139.801C43.8033 139.991 44.0466 140.068 44.2595 140.036C44.4725 140.003 44.6604 139.883 44.8361 139.758C44.9455 139.9 45.1621 139.911 45.3292 139.846C45.5566 139.759 45.7291 139.563 45.839 139.346C45.9489 139.128 46.0034 138.888 46.0574 138.65C46.1627 138.188 46.2685 137.726 46.3756 137.264C46.4592 136.904 46.5436 136.541 46.6844 136.199C46.9554 135.537 47.4221 134.981 47.926 134.483C48.1621 134.25 48.4186 134.037 48.632 133.786C48.761 133.636 48.9339 133.425 49.1673 133.482C49.4356 133.548 49.5096 133.894 49.4978 134.17C49.4497 135.289 48.869 136.338 48.8508 137.458C48.8481 137.632 48.8704 137.828 49.0088 137.933C49.2463 138.113 49.5686 137.877 49.7693 137.656C50.4812 136.873 51.2071 136.069 51.6112 135.091C52.304 133.413 52.4633 131.442 52.5814 129.648C52.6826 128.106 52.6213 126.631 53.1634 125.154C53.7159 123.647 54.584 122.281 55.3635 120.886C57.1763 117.642 58.1855 114.095 59.6116 110.713C60.4256 108.783 62.3083 107.121 61.6355 104.946C61.4189 104.246 61.142 103.553 60.6907 102.976C60.2399 102.399 59.5948 101.945 58.8684 101.851C56.4812 101.541 55.5991 105.27 54.875 106.887C53.0308 111.002 51.366 115.216 50.2578 119.595Z" fill="#F2B27E"/>
<path d="M44.8467 139.641C44.8707 138.189 45.0937 136.74 45.5067 135.348" stroke="#333333" stroke-width="0.5" stroke-miterlimit="10" stroke-linecap="round" stroke-linejoin="round"/>
<path d="M43.6285 139.482C43.7607 137.879 44.0925 136.293 44.6133 134.771" stroke="#333333" stroke-width="0.5" stroke-miterlimit="10" stroke-linecap="round" stroke-linejoin="round"/>
<path d="M43.0275 137.616C43.2045 136.382 43.4856 135.163 43.8665 133.976" stroke="#333333" stroke-width="0.5" stroke-miterlimit="10" stroke-linecap="round" stroke-linejoin="round"/>
<path d="M62.518 90.0821C57.7015 93.0317 54.6915 104.65 54.6915 104.65C54.6915 104.65 56.0245 107.76 60.3693 108.495C64.714 109.23 67.0167 105.967 67.0167 105.967C67.0167 105.967 68.2534 102.518 67.6037 97.7924C66.9541 93.0671 65.8427 88.0459 62.518 90.0821Z" fill="#F1CC4B"/>
<path d="M72.0662 86.754C71.8642 86.542 71.6449 86.3472 71.4197 86.1588C70.9798 86.1747 70.5335 85.9899 70.1426 85.7661C69.4743 85.3838 68.87 84.8894 68.3629 84.3105C67.933 84.7255 67.3305 84.9679 66.7399 84.958C67.3142 85.9263 68.0692 86.8048 68.7329 87.6906C71.0451 90.7751 72.6246 94.6413 72.0462 98.4527C73.0959 96.6412 73.8854 94.6359 74.0034 92.5457C74.1215 90.4554 73.5104 88.2703 72.0662 86.754Z" fill="#38322E"/>
<path d="M91.2705 43.8019C91.9124 43.14 94.8058 44.7548 94.7776 45.4027C94.7495 46.0506 90.3888 52.8728 89.7972 52.8288C89.2052 52.7852 90.629 44.4638 91.2705 43.8019Z" fill="#DBB53E"/>
<path d="M98.1245 48.2388C99.0434 48.1617 100.163 51.2811 99.7158 51.7505C99.2686 52.22 91.4984 54.4959 91.0812 54.0736C90.6635 53.6514 97.2056 48.3156 98.1245 48.2388Z" fill="#DBB53E"/>
<path opacity="0.05" d="M156.06 197.744C181.342 197.744 201.838 196.147 201.838 194.177C201.838 192.207 181.342 190.61 156.06 190.61C130.778 190.61 110.283 192.207 110.283 194.177C110.283 196.147 130.778 197.744 156.06 197.744Z" fill="black"/>
<path d="M169.382 90.5808C168.311 90.7302 167.296 91.1601 166.365 91.7086C163.429 93.4388 161.341 96.2835 159.469 99.1315C156.054 104.325 153.029 109.895 151.707 115.968C151.561 116.639 151.436 117.331 151.545 118.009C151.657 118.702 152.008 119.335 152.434 119.893C154.123 122.105 156.946 123.198 159.714 123.476C160.776 123.583 161.894 123.576 162.851 123.105C163.929 122.574 164.652 121.534 165.311 120.528C168.8 115.197 171.874 109.583 174.289 103.687C175.249 101.342 176.114 98.9131 176.266 96.3834C176.355 94.9038 176.266 92.1371 174.735 91.3277C173.355 90.5981 170.883 90.3715 169.382 90.5808Z" fill="#564C47"/>
<path d="M193.117 194.255C193.563 194.255 194.061 194.233 194.373 193.914C194.597 193.685 194.671 193.354 194.764 193.047C195.153 191.763 196.077 190.668 197.24 190.003C195.662 189.585 194.009 189.158 193.139 188.738C192.486 188.423 191.857 188.141 191.283 187.787C190.566 188.879 190.396 190.351 190.988 191.527C188.342 191.747 185.67 191.627 183.054 191.176C183.164 192.367 183.249 193.465 183.311 194.151C183.759 194.259 184.245 194.267 184.71 194.266C187.512 194.262 190.315 194.259 193.117 194.255Z" fill="#DBB53E"/>
<path d="M200.943 191.254C200.41 190.856 198.864 190.434 197.24 190.003C196.077 190.668 195.153 191.762 194.764 193.047C194.671 193.354 194.597 193.685 194.373 193.914C194.061 194.233 193.563 194.254 193.117 194.255C190.314 194.259 187.512 194.262 184.71 194.266C184.245 194.266 183.759 194.259 183.311 194.151C183.344 194.514 183.371 194.764 183.391 194.849C183.864 196.799 187.634 195.754 188.963 195.652C191.159 195.485 193.36 195.751 195.557 195.621C197.423 195.51 199.917 195.036 201.402 193.81C202.338 193.038 201.797 191.89 200.943 191.254Z" fill="#F1CC4B"/>
<path d="M188.909 184.679C188.642 183.945 188.451 183.176 188.273 182.414C187.516 179.156 185.955 166.661 185.766 165.603C184.629 159.251 183.64 143.455 183.158 140.683L170.978 144.782C171.769 147.749 175.532 159.869 175.794 162.349C177.26 176.239 178.27 173.752 182.106 185.385C183.204 185.712 184.398 185.759 185.541 185.599C186.697 185.437 187.813 185.088 188.909 184.679Z" fill="#F2B27E"/>
<path d="M191.283 187.787C190.652 187.398 190.088 186.923 189.641 186.215C189.337 185.733 189.103 185.214 188.908 184.68C187.812 185.088 186.697 185.438 185.541 185.599C184.398 185.759 183.204 185.713 182.106 185.385C182.171 185.581 182.234 185.77 182.3 185.974C182.623 186.969 182.872 189.198 183.054 191.177C185.67 191.627 188.342 191.747 190.988 191.527C190.396 190.351 190.566 188.879 191.283 187.787Z" fill="#605651"/>
<path d="M182.778 163.147C183.031 163.643 183.434 164.062 183.92 164.334" stroke="#333333" stroke-width="0.5" stroke-miterlimit="10" stroke-linecap="round" stroke-linejoin="round"/>
<path d="M110.283 155.151C111.127 152.577 112.393 150.164 113.653 147.766C114.695 145.782 115.792 143.745 117.393 142.209C116.996 142.018 116.721 141.89 116.627 141.863C114.7 141.302 113.731 145.092 113.157 146.295C112.209 148.283 110.883 150.06 109.903 152.03C109.07 153.704 108.24 156.103 108.564 158.001C108.768 159.197 110.034 159.299 111.01 158.876C111.525 158.653 112.412 157.814 113.385 156.842C113.129 156.494 112.85 156.165 112.521 155.885C111.904 155.359 111.082 155.013 110.283 155.151Z" fill="#F1CC4B"/>
<path d="M150.41 137.259C148.914 139.941 140.915 149.234 140.915 149.234C140.915 149.234 138.733 147.241 124.868 145.334C124.744 145.317 124.605 145.289 124.453 145.252C123.489 146.111 122.746 147.221 122.332 148.446C121.991 149.46 121.876 150.547 121.987 151.611C123.001 151.707 124.001 151.992 124.981 152.287C128.185 153.252 136.672 158.04 143.157 158.455C149.642 158.87 160.428 145.116 162.011 142.79L150.41 137.259Z" fill="#F2B27E"/>
<path d="M118.302 150.573C117.809 150.251 117.226 150.104 116.654 149.962C117.125 148.051 118.002 146.242 119.21 144.689C119.519 144.292 119.858 143.908 120.234 143.571C119.119 143.052 118.075 142.537 117.394 142.209C115.792 143.745 114.695 145.782 113.653 147.766C112.393 150.164 111.127 152.577 110.283 155.151C111.082 155.013 111.904 155.359 112.521 155.886C112.849 156.166 113.128 156.495 113.385 156.843C114.689 155.539 116.149 153.993 117.075 153.359C117.791 152.87 118.45 152.388 119.178 152.047C119.179 152.038 119.181 152.029 119.181 152.02C119.19 151.431 118.795 150.896 118.302 150.573Z" fill="#DBB53E"/>
<path d="M122.333 148.445C122.746 147.221 123.489 146.111 124.454 145.252C123.403 144.992 121.753 144.278 120.234 143.571C119.859 143.908 119.519 144.292 119.21 144.689C118.001 146.242 117.125 148.051 116.654 149.962C117.226 150.104 117.81 150.251 118.302 150.573C118.795 150.896 119.189 151.431 119.181 152.02C119.181 152.029 119.179 152.038 119.178 152.047C119.728 151.79 120.317 151.61 121.005 151.581C121.334 151.568 121.661 151.58 121.987 151.611C121.877 150.547 121.991 149.459 122.333 148.445Z" fill="#605651"/>
<path d="M141.94 157.514C142.144 157.026 142.347 156.538 142.55 156.05" stroke="#333333" stroke-width="0.5" stroke-miterlimit="10" stroke-linecap="round" stroke-linejoin="round"/>
<path d="M183.752 133.959C182.778 129.124 179.943 120.002 179.943 120.002L167.156 119.439L159.058 120.002C159.058 120.002 155.128 123.913 153.203 127.233C151.278 130.553 145.812 140.027 143.876 143.026C141.94 146.026 141.032 145.508 140.576 146.685C140.12 147.861 141.288 153.021 144.722 156.05C148.157 159.079 153.076 160.075 155.141 158.464C157.206 156.852 166.655 143.571 166.655 143.571L166.689 143.414C166.689 143.414 169.598 150.025 169.906 153.438C170.215 156.852 170.978 162.543 170.978 162.543C170.978 162.543 176.58 165.197 181.052 164.147C185.524 163.099 186.746 160.234 186.746 160.234C186.746 160.234 184.727 138.794 183.752 133.959Z" fill="#6ABAD2"/>
<path d="M141.401 150.671C142.071 151.013 142.909 150.727 143.486 150.245C144.064 149.763 144.471 149.112 144.99 148.567C145.506 148.024 146.129 147.593 146.649 147.054C147.18 146.505 147.594 145.855 147.989 145.201C152.702 137.385 155.132 128.238 160.712 121.015" stroke="#333333" stroke-width="0.5" stroke-miterlimit="10" stroke-linecap="round" stroke-linejoin="round"/>
<path d="M154.537 132.064C156.714 131.465 158.684 130.226 160.323 128.673C161.963 127.121 163.286 125.26 164.413 123.302" stroke="#333333" stroke-width="0.5" stroke-miterlimit="10" stroke-linecap="round" stroke-linejoin="round"/>
<path d="M166.755 142.976C170.176 140.541 173.768 138.347 177.498 136.417" stroke="#333333" stroke-width="0.5" stroke-miterlimit="10" stroke-linecap="round" stroke-linejoin="round"/>
<path d="M167.68 142.764C170.842 142.049 174.011 141.362 177.185 140.703" stroke="#333333" stroke-width="0.5" stroke-miterlimit="10" stroke-linecap="round" stroke-linejoin="round"/>
<path d="M168.503 141.746C170.098 137.369 170.964 132.726 171.053 128.068" stroke="#333333" stroke-width="0.5" stroke-miterlimit="10" stroke-linecap="round" stroke-linejoin="round"/>
<path d="M172.039 139.49C173.841 134.798 173.827 129.848 173.867 124.823" stroke="#333333" stroke-width="0.5" stroke-miterlimit="10" stroke-linecap="round" stroke-linejoin="round"/>
<path d="M169.136 141.433C169.002 141.719 169.118 142.097 169.389 142.258C169.517 142.334 169.682 142.375 169.751 142.507C169.812 142.626 169.77 142.768 169.746 142.899C169.633 143.52 169.965 144.125 170.255 144.686C170.871 145.878 171.346 147.142 171.666 148.445C172.033 149.938 172.198 151.473 172.361 153.002C172.733 156.489 173.104 159.975 173.476 163.462" stroke="#333333" stroke-width="0.5" stroke-miterlimit="10" stroke-linecap="round" stroke-linejoin="round"/>
<path d="M142.073 144.975C141.939 148.531 143.66 152.066 146.426 154.305C149.191 156.544 152.914 157.495 156.444 157.049" stroke="#333333" stroke-width="0.5" stroke-miterlimit="10" stroke-linecap="round" stroke-linejoin="round"/>
<path d="M170.814 160.749C174.565 162.526 179.036 163.018 182.898 161.496C184.419 160.896 185.911 159.891 186.474 158.355" stroke="#333333" stroke-width="0.5" stroke-miterlimit="10" stroke-linecap="round" stroke-linejoin="round"/>
<path d="M151.417 140.563C153.539 142.373 154.449 143.827 154.449 143.827C154.449 143.827 150.239 152.323 145.876 149.134C141.514 145.944 148.35 139.025 148.35 139.025C148.35 139.025 149.295 138.753 151.417 140.563Z" fill="#418899"/>
<path d="M216.66 109.415C216.875 109.267 217.12 109.145 217.336 109.265C217.497 109.354 217.567 109.549 217.585 109.731C217.633 110.21 217.412 110.688 217.082 111.039C216.752 111.39 216.322 111.63 215.886 111.836C215.736 111.907 215.572 111.985 215.497 112.134C215.249 112.627 216.007 112.467 216.203 112.438C216.755 112.356 217.307 112.273 217.86 112.191C218.935 112.031 220.011 111.87 221.087 111.71C221.398 111.664 221.73 111.621 222.014 111.757C222.297 111.893 222.476 112.286 222.282 112.533C222.182 112.659 222.019 112.712 221.864 112.758C221.155 112.972 220.446 113.185 219.738 113.399C219.372 113.51 217.703 114.07 217.703 114.07C217.703 114.07 218.547 114.132 218.861 114.16C219.556 114.223 222.379 114.137 222.696 114.472C223.407 115.223 221.73 115.47 221.383 115.534C220.532 115.691 218.164 115.977 218.164 115.977C218.164 115.977 221.452 116.385 222.032 116.491C222.264 116.534 222.53 116.601 222.629 116.815C222.824 117.235 222.208 117.549 221.748 117.601C220.454 117.745 218.542 117.849 217.239 117.861C217.942 118.27 219.254 118.654 219.957 119.063C220.222 119.217 220.528 119.485 220.408 119.766C220.3 120.021 219.943 120.024 219.67 119.98C218.485 119.789 217.194 119.62 216.056 119.249C215.01 118.908 213.891 118.983 212.81 118.86C211.897 118.755 211 118.509 210.161 118.132C209.055 117.636 193.237 116.407 189.163 114.439C185.305 112.576 178.771 104.075 177.88 99.1868C176.989 94.2986 179.374 88.8506 182.823 93.4968C186.101 98.1417 191.552 108.509 191.552 108.509C195.616 108.111 207.793 113.093 208.562 112.976C209.834 112.782 210.837 112.002 211.93 111.39C212.386 111.134 212.865 110.87 213.344 110.662C213.886 110.427 214.489 110.391 215.053 110.236C215.579 110.093 216.078 109.848 216.514 109.52C216.561 109.487 216.61 109.45 216.66 109.415Z" fill="#F2B27E"/>
<path d="M215.111 113.222C214.741 113.718 214.36 114.214 213.888 114.615C213.416 115.015 212.841 115.319 212.223 115.368" stroke="#333333" stroke-width="0.5" stroke-miterlimit="10" stroke-linecap="round" stroke-linejoin="round"/>
<path d="M215.277 115.022C215.094 115.869 214.912 116.715 214.729 117.562" stroke="#333333" stroke-width="0.5" stroke-miterlimit="10" stroke-linecap="round" stroke-linejoin="round"/>
<path d="M180.583 91.4836C186.311 94.2834 189.099 102.287 189.099 102.287C189.099 102.287 189.31 104.592 185.186 106.911C181.063 109.23 177.086 107.774 177.086 107.774C177.086 107.774 174.855 88.6833 180.583 91.4836Z" fill="#F1CC4B"/>
<path d="M169.845 90.5005C165.467 90.7383 160.817 89.7709 157.633 91.6949C154.449 93.619 156.444 101.07 156.444 101.07C156.444 101.07 158.664 107.116 157.721 113.278C156.779 119.439 153.427 125.583 153.427 125.583C153.427 125.583 163.38 132.868 172.043 132.868C180.706 132.868 183.02 128.197 183.02 128.197C183.02 128.197 179.852 117.348 180.711 111.208C181.57 105.068 183.095 94.729 181.597 92.4054C180.098 90.0823 174.224 90.2626 169.845 90.5005Z" fill="#F1CC4B"/>
<path d="M164.281 91.9677C164.214 93.2716 172.188 97.2391 172.188 97.2391C172.188 97.2391 175.781 93.8627 175.848 92.5583C175.915 91.2544 173.354 90.5639 170.16 90.4009C166.965 90.2375 164.347 90.6638 164.281 91.9677Z" fill="#F2B27E"/>
<path d="M181.254 108.105C181.807 104.941 181.975 101.71 181.754 98.5054" stroke="#333333" stroke-width="0.5" stroke-miterlimit="10" stroke-linecap="round" stroke-linejoin="round"/>
<path d="M163.107 119.393C164.621 121.304 166.751 122.623 168.906 123.764C171.591 125.184 174.58 126.417 177.584 125.973" stroke="#333333" stroke-width="0.5" stroke-miterlimit="10" stroke-linecap="round" stroke-linejoin="round"/>
<path d="M161.665 118.903C162.471 120.212 163.281 121.526 164.285 122.689C165.289 123.853 166.503 124.869 167.93 125.439" stroke="#333333" stroke-width="0.5" stroke-miterlimit="10" stroke-linecap="round" stroke-linejoin="round"/>
<path d="M119.822 123.777C119.957 123.514 120.171 123.301 120.381 123.094C121.05 122.432 121.719 121.771 122.388 121.109C122.954 120.55 123.575 120.125 124.246 119.712C124.995 119.251 125.829 118.946 126.656 118.644C128.174 118.09 129.758 117.763 131.144 116.908C131.144 116.908 136.027 102.519 138.422 100.178C140.818 97.8366 151.64 92.1653 157.488 91.7498C163.395 91.3303 160.845 98.5045 157.98 100.331C155.115 102.158 144.121 104.174 143.107 105.823C142.092 107.473 134.392 119.996 134.392 119.996C133.579 120.846 132.982 121.84 132.283 122.818C131.237 124.279 130.063 125.871 128.59 126.932C127.731 127.55 126.69 127.851 125.672 128.142C125.386 128.223 124.987 128.254 124.88 127.976C124.817 127.815 124.902 127.635 124.996 127.49C125.602 126.548 126.648 125.962 127.279 125.036C127.435 124.808 127.554 124.475 127.361 124.277C127.193 124.106 126.934 124.194 126.745 124.254C126.432 124.354 126.102 124.4 125.778 124.474C125.087 124.632 124.398 124.858 123.819 125.278C123.519 125.495 123.256 125.758 122.995 126.02C122.66 126.357 122.327 126.693 121.994 127.031C121.823 127.204 121.649 127.379 121.441 127.506C121.233 127.634 120.984 127.709 120.744 127.664C120.568 127.63 120.39 127.506 120.372 127.328C120.157 127.342 119.934 127.345 119.736 127.26C119.538 127.176 119.372 126.981 119.385 126.766C119.388 126.707 119.406 126.647 119.396 126.588C119.384 126.52 119.339 126.463 119.302 126.404C119.129 126.126 119.142 125.764 119.256 125.457C119.371 125.151 119.576 124.888 119.778 124.63C119.643 124.367 119.688 124.04 119.822 123.777Z" fill="#F2B27E"/>
<path d="M120.443 127.233C121.229 126.012 122.182 124.899 123.267 123.934" stroke="#333333" stroke-width="0.5" stroke-miterlimit="10" stroke-linecap="round" stroke-linejoin="round"/>
<path d="M119.492 126.456C120.449 125.164 121.567 123.99 122.812 122.972" stroke="#333333" stroke-width="0.5" stroke-miterlimit="10" stroke-linecap="round" stroke-linejoin="round"/>
<path d="M119.965 124.554C120.765 123.599 121.647 122.71 122.596 121.903" stroke="#333333" stroke-width="0.5" stroke-miterlimit="10" stroke-linecap="round" stroke-linejoin="round"/>
<path d="M161.067 90.6048C155.959 91.3153 149.107 93.3401 149.107 93.3401C149.107 93.3401 147.901 97.2695 149.731 101.064C151.561 104.858 155.816 106.447 155.816 106.447L163.614 102.324C163.614 102.324 166.176 89.8943 161.067 90.6048Z" fill="#F1CC4B"/>
<path d="M134.505 119.372C134.581 119.385 134.66 119.396 134.732 119.371C134.818 119.34 134.879 119.264 134.934 119.191C135.349 118.637 135.716 118.046 136.027 117.428C134.353 117.039 132.852 115.958 131.954 114.493C131.726 115.065 131.266 115.796 131.193 116.404C131.137 116.866 131.536 117.389 131.82 117.748C132.483 118.586 133.45 119.188 134.505 119.372Z" fill="#BF300C"/>
<path d="M133.577 116.692C133.338 117.898 132.451 118.738 131.596 118.568C130.741 118.399 130.241 117.284 130.481 116.078C130.72 114.872 131.606 114.033 132.462 114.202C133.317 114.371 133.816 115.486 133.577 116.692Z" fill="#6ABAD2"/>
<path d="M162.551 91.7515C162.834 94.8364 162.143 98.003 160.604 100.69" stroke="#333333" stroke-width="0.5" stroke-miterlimit="10" stroke-linecap="round" stroke-linejoin="round"/>
<path d="M163.521 93.4099C163.719 95.1397 163.557 96.9098 163.048 98.5751" stroke="#333333" stroke-width="0.5" stroke-miterlimit="10" stroke-linecap="round" stroke-linejoin="round"/>
<path d="M184.123 73.129C185.476 72.4838 186.401 71.0937 186.437 69.6522C186.473 68.2108 185.618 66.7802 184.298 66.0747C185.026 65.0991 185.129 63.7334 184.555 62.6683C183.982 61.6033 182.758 60.8873 181.502 60.8818C181.232 60.8805 180.939 60.9041 180.714 60.7615C180.551 60.658 180.454 60.4851 180.351 60.3262C179.345 58.7748 177.006 58.1746 175.318 59.0345C174.72 58.0471 173.847 57.1568 172.716 56.7886C171.583 56.4208 170.175 56.6946 169.488 57.6276C168.492 56.701 166.942 56.3582 165.619 56.7722C164.297 57.1863 163.261 58.3385 163.036 59.6479C161.521 59.1662 159.75 59.365 158.483 60.2912C157.216 61.2174 156.551 62.8867 156.997 64.3481C154.726 65.3978 153.753 68.4123 155.014 70.4967C154.351 71.5145 153.674 72.5678 153.476 73.7514C153.278 74.9345 153.681 76.2938 154.762 76.9053C154.556 78.0303 154.497 79.2212 154.936 80.2835C155.375 81.3459 156.413 82.2453 157.611 82.2689C157.541 83.4525 158.091 84.6551 159.049 85.4119C160.007 86.1687 161.349 86.4607 162.556 86.1751C163.695 87.9057 166.198 88.6839 168.189 87.9271C169.86 87.2919 170.998 85.7892 171.753 84.2329C171.832 84.0694 171.916 83.8956 172.073 83.7957C172.238 83.6908 172.449 83.6881 172.648 83.6826C174.963 83.6159 177.164 82.4709 178.622 80.7798C179.32 79.9703 179.633 78.8761 180.384 78.1284C180.963 77.5518 181.81 77.2685 182.453 76.7573C183.505 75.9197 184.604 74.5132 184.123 73.129Z" fill="#9B5B2F"/>
<path d="M165.993 91.5827C165.993 92.996 166.638 94.2835 169.901 94.2835C173.163 94.2835 173.808 93.0414 173.808 91.5827C173.808 90.124 174.288 84.533 174.288 84.533H165.513C165.513 84.533 165.993 90.1694 165.993 91.5827Z" fill="#F2B27E"/>
<mask id="mask3_17_3189" style="mask-type:luminance" maskUnits="userSpaceOnUse" x="165" y="84" width="10" height="11">
<path d="M165.993 91.5827C165.993 92.996 166.638 94.2835 169.901 94.2835C173.163 94.2835 173.808 93.0414 173.808 91.5827C173.808 90.124 174.288 84.533 174.288 84.533H165.513C165.513 84.533 165.993 90.1694 165.993 91.5827Z" fill="white"/>
</mask>
<g mask="url(#mask3_17_3189)">
<path opacity="0.7" d="M172.163 90.4786C176.307 90.4786 179.668 87.261 179.668 83.2918C179.668 79.3226 176.307 76.105 172.163 76.105C168.018 76.105 164.657 79.3226 164.657 83.2918C164.657 87.261 168.018 90.4786 172.163 90.4786Z" fill="#F2B27E"/>
</g>
<path d="M159.631 74.6143C159.585 71.1058 160.543 67.5719 162.507 64.8688C164.396 62.2682 167.298 60.731 170.742 60.6357C174.186 60.5403 176.854 61.6263 178.987 63.7047C181.337 65.9951 182.491 69.4001 182.214 72.6698C182.093 74.104 181.716 75.5105 181.644 76.9483C181.513 79.5493 182.371 82.2501 181.514 84.709C180.774 86.8296 178.821 88.3769 176.676 89.0415C174.531 89.7062 172.212 89.5845 170.008 89.1568C166.884 88.5503 164.286 86.3302 162.448 83.7756C160.615 81.2264 159.674 77.9317 159.631 74.6143Z" fill="#F2B27E"/>
<path d="M164.856 80.9849C164.856 82.2543 165.885 83.283 167.155 83.283C168.424 83.283 169.453 82.2543 169.453 80.9849C169.453 79.7155 168.424 78.6863 167.155 78.6863C165.885 78.6863 164.856 79.7155 164.856 80.9849Z" fill="#E89777"/>
<path d="M176.966 80.9849C176.966 82.2543 177.995 83.283 179.264 83.283C180.534 83.283 181.563 82.2543 181.563 80.9849C181.563 79.7155 180.534 78.6863 179.264 78.6863C177.995 78.6863 176.966 79.7155 176.966 80.9849Z" fill="#E89777"/>
<path d="M173.573 85.9662C172.866 86.0116 172.146 85.8963 171.551 85.6416" stroke="#333333" stroke-width="0.5" stroke-miterlimit="10" stroke-linecap="round" stroke-linejoin="round"/>
<path d="M170.392 83.0089C170.211 83.9877 171.263 84.9334 172.743 85.1213C174.223 85.3088 175.569 84.6673 175.75 83.6885C175.931 82.7097 174.702 82.716 173.223 82.5281C171.743 82.3401 170.573 82.0296 170.392 83.0089Z" fill="#C9413A"/>
<mask id="mask4_17_3189" style="mask-type:luminance" maskUnits="userSpaceOnUse" x="170" y="82" width="6" height="4">
<path d="M170.392 83.0089C170.211 83.9877 171.263 84.9334 172.743 85.1213C174.223 85.3088 175.569 84.6673 175.75 83.6885C175.931 82.7097 174.702 82.716 173.223 82.5281C171.743 82.3401 170.573 82.0296 170.392 83.0089Z" fill="white"/>
</mask>
<g mask="url(#mask4_17_3189)">
<path d="M168.042 83.8128C167.648 84.8039 168.876 86.0501 170.785 86.5963C172.694 87.1424 174.561 86.7815 174.955 85.7904C175.349 84.7994 174.121 83.5531 172.212 83.007C170.303 82.4608 168.435 82.8217 168.042 83.8128Z" fill="#F96C4B"/>
</g>
<mask id="mask5_17_3189" style="mask-type:luminance" maskUnits="userSpaceOnUse" x="170" y="82" width="6" height="4">
<path d="M170.392 83.0089C170.211 83.9877 171.263 84.9334 172.743 85.1213C174.223 85.3088 175.569 84.6673 175.75 83.6885C175.931 82.7097 174.702 82.716 173.223 82.5281C171.743 82.3401 170.573 82.0296 170.392 83.0089Z" fill="white"/>
</mask>
<g mask="url(#mask5_17_3189)">
<path d="M170.525 82.1853C170.407 82.8522 171.562 83.2258 173.037 83.4033C174.511 83.5804 175.699 83.6376 175.817 82.9707C175.934 82.3038 174.782 82.0441 173.307 81.8665C171.833 81.6886 170.642 81.5183 170.525 82.1853Z" fill="white"/>
</g>
<path d="M170.392 83.0089C170.211 83.9877 171.263 84.9334 172.743 85.1213C174.223 85.3088 175.569 84.6673 175.75 83.6885C175.931 82.7097 174.702 82.716 173.223 82.5281C171.743 82.3401 170.573 82.0296 170.392 83.0089Z" stroke="#333333" stroke-width="0.5" stroke-miterlimit="10" stroke-linecap="round" stroke-linejoin="round"/>
<path d="M175.006 74.6599C174.871 75.912 175.087 77.1996 175.623 78.3391C175.919 78.9679 176.321 79.5972 176.28 80.2904C176.253 80.7599 176.007 81.212 175.629 81.4903C175.249 81.7686 174.745 81.8681 174.288 81.7537" stroke="#333333" stroke-width="0.5" stroke-miterlimit="10" stroke-linecap="round" stroke-linejoin="round"/>
<path d="M171.827 78.0291C171.827 78.0291 170.515 76.3802 168.302 77.118" stroke="#333333" stroke-width="0.5" stroke-miterlimit="10" stroke-linecap="round" stroke-linejoin="round"/>
<path d="M172.269 77.6246C172.269 77.6246 171.958 77.0321 171.469 76.8079" stroke="#333333" stroke-width="0.5" stroke-miterlimit="10" stroke-linecap="round" stroke-linejoin="round"/>
<path d="M176.54 78.0291C176.54 78.0291 177.851 76.3802 180.064 77.118" stroke="#333333" stroke-width="0.5" stroke-miterlimit="10" stroke-linecap="round" stroke-linejoin="round"/>
<path d="M176.097 77.6246C176.097 77.6246 176.408 77.0321 176.898 76.8079" stroke="#333333" stroke-width="0.5" stroke-miterlimit="10" stroke-linecap="round" stroke-linejoin="round"/>
<path d="M169.641 71.4184C171.109 70.8872 172.146 71.7148 172.269 72.5289C172.269 72.5289 171.357 72.2279 169.971 72.4372C168.584 72.6469 167.459 73.2553 167.459 73.2553C167.459 73.2553 168.172 71.95 169.641 71.4184Z" fill="#9B5B2F"/>
<path d="M178.415 71.4184C176.946 70.8872 175.909 71.7148 175.786 72.5289C175.786 72.5289 176.698 72.2279 178.085 72.4372C179.472 72.6469 180.597 73.2553 180.597 73.2553C180.597 73.2553 179.884 71.95 178.415 71.4184Z" fill="#9B5B2F"/>
<path d="M163.569 72.7798C164.629 73.2511 165.919 72.6859 166.644 71.7797C167.368 70.8735 167.658 69.7053 167.929 68.5772C168.775 68.9299 169.782 68.6121 170.484 68.0224C171.185 67.4331 171.647 66.6132 172.093 65.8119C172.518 66.6554 172.965 67.5239 173.694 68.125C174.423 68.7261 175.518 68.9898 176.323 68.4945C176.416 68.4373 176.513 68.3688 176.621 68.3788C176.774 68.3924 176.865 68.549 176.942 68.6816C177.592 69.8034 179.078 70.36 180.305 69.9414C180.485 70.6964 180.67 71.4655 181.071 72.1306C181.471 72.7957 182.128 73.3528 182.9 73.435C183.774 70.2529 183.018 66.6953 181.029 64.0617C179.04 61.4285 175.888 59.7414 172.605 59.4109C169.986 59.1471 167.262 59.7337 165.07 61.1915C162.601 62.8341 160.922 65.4832 160.006 68.3039C159.371 70.2588 158.76 73.3596 159.899 75.2614C160.379 76.0645 161.204 76.104 161.956 75.6228C162.924 75.0031 163.271 73.8209 163.569 72.7798Z" fill="#9B5B2F"/>
<path d="M157.661 78.6441C158.544 81.0162 160.706 82.434 161.79 81.9065C162.632 81.497 162.764 79.9175 162.274 78.0225C161.784 76.1275 160.368 73.7168 158.939 74.0768C157.51 74.4373 156.78 76.2719 157.661 78.6441Z" fill="#F2B27E"/>
<path opacity="0.7" d="M158.872 75.4143C159.58 75.7017 160.139 76.2765 160.559 76.9148C161.124 77.7724 161.473 78.7707 161.567 79.7936C161.339 79.6256 161.026 79.5793 160.759 79.6742C160.473 79.7759 160.344 79.9952 160.203 80.2421C159.572 79.9784 159.021 79.0599 158.733 78.4725C158.396 77.7842 158.213 77.0187 158.221 76.2519C158.225 75.8506 158.336 75.1968 158.872 75.4143Z" fill="#F2B27E"/>
<path d="M162.98 110.977C161.827 112.286 160.674 113.595 159.521 114.904C158.328 116.258 157.298 116.941 156.427 118.506C155.919 119.419 155.261 121.071 155.068 122.106C157.366 120.706 162.706 118.406 167.376 116.123C165.376 114.986 163.789 113.13 162.98 110.977Z" fill="#605651"/>
<path d="M177.916 103.517C177.925 103.527 177.934 103.537 177.943 103.547C177.986 103.094 178.019 102.648 178.046 102.215C178.277 98.4236 178.953 94.5878 178.762 90.8032C177.811 90.2997 176.54 90.4686 176.54 90.4686C176.54 90.4686 176.533 91.8429 176.456 92.3132C176.19 93.9363 175.813 95.5584 174.986 96.9971C174.41 97.9973 173.642 98.8708 172.88 99.7366C172.773 99.8569 172.668 99.9777 172.561 100.098C173.247 100.201 173.921 100.425 174.538 100.741C175.841 101.409 176.925 102.437 177.916 103.517Z" fill="#605651"/>
<path d="M177.943 103.547C177.934 103.537 177.925 103.527 177.916 103.517C176.925 102.438 175.841 101.41 174.537 100.742C173.92 100.426 173.246 100.202 172.561 100.099C169.367 103.725 166.173 107.352 162.979 110.978C163.789 113.131 165.375 114.987 167.375 116.124C170.677 114.51 173.645 112.905 174.963 111.632C176.98 109.685 177.667 106.471 177.943 103.547Z" fill="#938782"/>
<path opacity="0.05" d="M253.774 197.744C274.419 197.744 291.156 196.147 291.156 194.177C291.156 192.207 274.419 190.61 253.774 190.61C233.129 190.61 216.393 192.207 216.393 194.177C216.393 196.147 233.129 197.744 253.774 197.744Z" fill="black"/>
<path d="M221.808 183.653C220.598 181.116 219.783 178.413 218.972 175.722C218.387 173.779 217.797 171.778 217.839 169.766C217.463 169.927 217.206 170.039 217.124 170.083C215.353 171.026 217.303 174.417 217.733 175.679C218.442 177.764 218.732 179.962 219.406 182.057C219.978 183.837 221.058 186.134 222.614 187.267C223.595 187.982 224.573 187.171 224.977 186.187C225.227 185.576 225.253 184 225.265 182.338C223.998 182.301 222.71 182.757 221.808 183.653Z" fill="#DE582A"/>
<path d="M222.246 173.739C222.377 173.852 222.577 173.777 222.735 173.706C223.357 173.427 224.04 173.284 224.721 173.29C224.975 173.292 225.236 173.317 225.461 173.434C225.899 173.66 226.073 174.138 226.147 174.647C226.309 174.241 226.522 173.861 226.829 173.535C227.758 172.55 228.969 171.889 230.169 171.264L225.235 166.365C224.499 166.832 222.963 167.547 221.421 168.227C221.463 170.006 221.696 171.781 222.134 173.506C222.155 173.591 222.18 173.681 222.246 173.739Z" fill="#B27449"/>
<path d="M225.469 178.002C225.685 176.928 225.732 175.691 226.147 174.647C226.073 174.138 225.899 173.66 225.461 173.433C225.235 173.317 224.974 173.292 224.721 173.29C224.04 173.284 223.357 173.427 222.735 173.706C222.577 173.777 222.377 173.852 222.246 173.739C222.18 173.681 222.154 173.591 222.133 173.506C221.696 171.78 221.462 170.006 221.42 168.227C220.418 168.669 219.413 169.096 218.625 169.431C218.328 169.557 218.063 169.67 217.839 169.766C217.796 171.779 218.387 173.779 218.972 175.722C219.783 178.413 220.598 181.116 221.807 183.653C222.709 182.757 223.998 182.301 225.265 182.339C225.268 182.048 225.269 181.754 225.272 181.463C225.284 180.104 225.311 178.79 225.469 178.002Z" fill="#BF300C"/>
<path d="M285.391 193.59C282.583 193.71 279.777 193.402 276.984 193.094C274.967 192.872 272.895 192.632 271.06 191.805C271.061 192.214 271.063 192.494 271.072 192.588C271.246 194.587 275.13 194.119 276.46 194.218C278.656 194.382 280.792 194.976 282.984 195.176C284.845 195.346 287.382 195.252 289.034 194.263C290.076 193.639 289.712 192.423 288.965 191.666C288.501 191.197 287.061 190.555 285.536 189.893C285.005 191.045 284.92 192.409 285.391 193.59Z" fill="#DE582A"/>
<path d="M276.44 189.305C276.596 189.229 276.605 189.016 276.602 188.843C276.588 188.161 276.724 187.477 276.997 186.852C277.098 186.62 277.223 186.39 277.418 186.228C277.798 185.913 278.306 185.94 278.803 186.071C278.493 185.764 278.226 185.42 278.046 185.009C277.504 183.769 277.37 182.395 277.264 181.046L270.824 183.669C270.966 184.529 271.022 186.223 271.044 187.908C272.698 188.566 274.423 189.045 276.181 189.318C276.269 189.332 276.361 189.344 276.44 189.305Z" fill="#B27449"/>
<path d="M281.625 188.009C280.721 187.39 279.602 186.863 278.803 186.071C278.306 185.94 277.798 185.913 277.418 186.228C277.223 186.39 277.098 186.62 276.997 186.852C276.724 187.477 276.588 188.161 276.602 188.843C276.606 189.016 276.596 189.229 276.44 189.305C276.361 189.344 276.269 189.332 276.182 189.318C274.423 189.045 272.698 188.565 271.045 187.907C271.059 189.003 271.06 190.095 271.059 190.951C271.059 191.273 271.059 191.562 271.059 191.805C272.895 192.633 274.967 192.872 276.983 193.094C279.777 193.402 282.583 193.71 285.391 193.59C284.92 192.409 285.004 191.045 285.536 189.894C285.269 189.778 285 189.661 284.732 189.545C283.486 189.002 282.288 188.462 281.625 188.009Z" fill="#BF300C"/>
<path d="M278.514 163.639C278.257 157.191 278.939 136.414 278.841 133.602C278.841 133.602 278.773 118.044 264.906 118.044C251.039 118.044 250.446 130.762 250.446 130.762C249.237 133.585 242.43 153.799 242.43 153.799C235.346 156.466 225.776 164.071 223.736 165.366C223.736 165.366 223.352 167.326 224.881 170.051C226.41 172.776 228.671 173.76 228.671 173.76C229.508 173.325 247.694 162.838 248.351 162.433C252.918 159.618 260.105 148.716 264.18 142.055C265.354 148.416 267.14 157.778 267.083 159.549C266.721 170.812 269.327 184.204 269.796 186.838C269.796 186.838 270.989 187.535 275.095 186.838C279.201 186.141 279.696 184.63 279.696 184.63C279.626 183.854 278.547 164.463 278.514 163.639Z" fill="#CC9864"/>
<path d="M264.479 141.613C268.367 140.65 272.255 139.688 276.143 138.725" stroke="#333333" stroke-width="0.5" stroke-miterlimit="10" stroke-linecap="round" stroke-linejoin="round"/>
<path d="M264.766 142.103C267.508 141.893 270.253 141.724 272.999 141.595" stroke="#333333" stroke-width="0.5" stroke-miterlimit="10" stroke-linecap="round" stroke-linejoin="round"/>
<path d="M223.694 166.63C229.808 162.972 235.949 157.858 242.399 154.832C242.817 154.636 243.252 154.438 243.556 154.09C243.794 153.817 243.932 153.474 244.064 153.137C244.869 151.071 245.575 148.968 246.281 146.866C248.262 140.966 250.244 135.066 252.226 129.166" stroke="#333333" stroke-width="0.5" stroke-miterlimit="10" stroke-linecap="round" stroke-linejoin="round"/>
<path d="M248.992 139.052C250.756 138.711 252.311 137.638 253.537 136.325C254.763 135.011 255.698 133.459 256.625 131.919" stroke="#333333" stroke-width="0.5" stroke-miterlimit="10" stroke-linecap="round" stroke-linejoin="round"/>
<path d="M265.239 141.328C266.336 138.896 267.078 136.305 267.438 133.661" stroke="#333333" stroke-width="0.5" stroke-miterlimit="10" stroke-linecap="round" stroke-linejoin="round"/>
<path d="M267.722 140.849C268.992 138.358 269.83 135.648 270.187 132.875" stroke="#333333" stroke-width="0.5" stroke-miterlimit="10" stroke-linecap="round" stroke-linejoin="round"/>
<path d="M266.369 141.113C266.341 140.992 266.13 141.07 266.127 141.194C266.125 141.318 266.226 141.415 266.298 141.516C266.525 141.837 266.474 142.27 266.429 142.662C265.855 147.737 268.203 152.694 268.404 157.797C268.453 159.033 268.375 160.27 268.351 161.507C268.311 163.502 268.412 165.497 268.551 167.487C269.01 174.054 269.889 180.59 271.18 187.044" stroke="#333333" stroke-width="0.5" stroke-miterlimit="10" stroke-linecap="round" stroke-linejoin="round"/>
<path d="M225.379 164.235C225.303 167.747 227.37 171.219 230.494 172.826" stroke="#333333" stroke-width="0.5" stroke-miterlimit="10" stroke-linecap="round" stroke-linejoin="round"/>
<path d="M269.411 184.76C271.202 184.921 272.991 184.519 274.745 184.119C276.402 183.742 278.13 183.33 279.425 182.228" stroke="#333333" stroke-width="0.5" stroke-miterlimit="10" stroke-linecap="round" stroke-linejoin="round"/>
<path d="M247.593 156.279C247.64 156.302 247.628 156.19 247.577 156.204C247.526 156.218 247.516 156.284 247.516 156.337C247.513 157.902 247.787 159.468 248.322 160.94" stroke="#333333" stroke-width="0.5" stroke-miterlimit="10" stroke-linecap="round" stroke-linejoin="round"/>
<path d="M267.754 155.435C269.66 158.225 272.138 160.623 274.991 162.435" stroke="#333333" stroke-width="0.5" stroke-miterlimit="10" stroke-linecap="round" stroke-linejoin="round"/>
<path d="M273.746 119.476C270.857 126.6 252.377 127.937 247.754 121.107C243.131 114.277 242.976 100.481 249.206 92.7413C255.437 85.0015 269.349 88.0605 273.374 92.3554C277.399 96.6507 276.635 112.352 273.746 119.476Z" fill="#DBB53E"/>
<path d="M304.38 139.353C304.32 139.044 304.087 138.803 303.864 138.581C303.094 137.814 302.324 137.046 301.553 136.279C301.157 135.885 300.761 135.49 300.366 135.096C300.226 134.957 299.646 134.444 300.189 134.348C300.354 134.319 300.513 134.404 300.661 134.483C301.085 134.71 301.534 134.912 302.013 134.967C302.491 135.022 303.007 134.915 303.363 134.59C303.498 134.467 303.612 134.294 303.588 134.113C303.556 133.868 303.311 133.744 303.064 133.66C303.006 133.64 302.948 133.623 302.893 133.606C302.37 133.452 301.876 133.198 301.447 132.861C300.986 132.5 300.597 132.038 300.086 131.744C299.633 131.483 299.135 131.256 298.657 131.043C297.514 130.531 296.289 130.191 295.374 129.286L290.924 131.928C291.662 132.79 292.137 133.405 292.19 133.645C292.388 134.543 292.726 135.41 293.187 136.206C293.733 137.146 294.461 138 294.812 139.043C295.193 140.177 295.827 141.314 296.381 142.379C296.509 142.625 296.723 142.909 296.993 142.844C297.29 142.772 297.322 142.366 297.288 142.062C297.197 141.254 296.722 139.972 296.631 139.163C297.418 140.202 298.642 141.674 299.53 142.627C299.846 142.966 300.465 143.272 300.686 142.865C300.799 142.658 300.694 142.404 300.59 142.193C300.329 141.664 298.695 138.782 298.695 138.782C298.695 138.782 300.337 140.511 300.971 141.101C301.229 141.341 302.427 142.539 302.606 141.521C302.686 141.066 300.933 138.852 300.569 138.256C300.404 137.988 299.95 137.273 299.95 137.273C299.95 137.273 301.396 138.278 301.702 138.506C302.297 138.948 302.891 139.389 303.486 139.831C303.615 139.927 303.755 140.027 303.916 140.031C304.231 140.04 304.439 139.661 304.38 139.353Z" fill="#B27449"/>
<path d="M298.783 134.783C298.164 134.783 297.539 134.773 296.936 134.633C296.333 134.493 295.746 134.212 295.338 133.746" stroke="#333333" stroke-width="0.5" stroke-miterlimit="10" stroke-linecap="round" stroke-linejoin="round"/>
<path d="M297.438 135.991C296.649 136.35 295.86 136.708 295.072 137.066" stroke="#333333" stroke-width="0.5" stroke-miterlimit="10" stroke-linecap="round" stroke-linejoin="round"/>
<path d="M294.187 129.548C294.739 128.868 295.162 128.104 295.5 127.298C293.664 123.939 289.479 115.979 286.786 114.112C286.786 114.112 285.168 101.939 283.713 97.398C282.258 92.8571 278.818 91.4579 278.08 91.3221C275.562 90.859 275.046 97.2673 274.495 101.069C273.782 105.986 277.893 114.17 279.629 118.086C280.906 120.969 286.374 127.958 289.662 131.925C291.397 131.899 293.08 130.914 294.187 129.548Z" fill="#6ABAD2"/>
<path d="M294.187 129.549C293.08 130.915 291.397 131.899 289.662 131.926C290.134 132.495 290.561 133.003 290.924 133.426C290.924 133.426 292.762 133.309 294.404 131.919C296.047 130.53 296.373 128.786 296.373 128.786C296.264 128.678 295.952 128.126 295.5 127.298C295.162 128.104 294.739 128.868 294.187 129.549Z" fill="#418899"/>
<path d="M278.08 91.3222C278.08 91.3222 280.392 95.7873 280.419 101.475C280.447 107.163 277.565 112.726 277.565 112.726L277.859 114.915C277.859 114.915 283.108 109.159 283.317 102.475C283.418 99.2372 282.916 96.0361 281.846 93.9259C281.846 93.9259 280.479 91.2832 278.08 91.3222Z" fill="#F1CC4B"/>
<path d="M230.415 123.5C229.264 124.652 227.798 125.337 226.449 126.226C225.714 126.711 224.974 127.2 224.351 127.822C223.794 128.378 223.287 128.936 222.866 129.611C222.368 130.409 221.869 131.207 221.371 132.005C221.215 132.256 221.056 132.512 220.985 132.799C220.915 133.086 220.947 133.415 221.14 133.638C221.003 133.935 220.865 134.239 220.823 134.563C220.783 134.888 220.854 135.244 221.087 135.474C221.136 135.523 221.194 135.568 221.221 135.632C221.244 135.687 221.241 135.749 221.251 135.808C221.288 136.02 221.494 136.17 221.706 136.207C221.919 136.244 222.135 136.189 222.341 136.126C222.4 136.296 222.602 136.375 222.781 136.367C223.024 136.356 223.25 136.224 223.423 136.053C223.596 135.881 223.724 135.671 223.85 135.462C224.096 135.057 224.343 134.652 224.591 134.248C224.784 133.933 224.979 133.616 225.22 133.335C225.687 132.793 226.305 132.414 226.941 132.101C227.239 131.954 227.55 131.833 227.832 131.663C228.002 131.561 228.233 131.415 228.436 131.543C228.67 131.691 228.63 132.043 228.532 132.301C228.132 133.347 227.249 134.159 226.877 135.216C226.819 135.379 226.779 135.573 226.877 135.716C227.045 135.961 227.426 135.84 227.686 135.694C228.609 135.176 229.552 134.643 230.245 133.843C231.433 132.47 232.208 130.651 232.888 128.987C233.342 127.874 233.694 126.769 234.289 125.754L230.415 123.5Z" fill="#B27449"/>
<path d="M222.388 136.018C222.871 134.648 223.541 133.345 224.374 132.155" stroke="#333333" stroke-width="0.5" stroke-miterlimit="10" stroke-linecap="round" stroke-linejoin="round"/>
<path d="M221.283 135.482C221.916 134.003 222.733 132.603 223.708 131.324" stroke="#333333" stroke-width="0.5" stroke-miterlimit="10" stroke-linecap="round" stroke-linejoin="round"/>
<path d="M221.304 133.521C221.862 132.407 222.515 131.339 223.252 130.334" stroke="#333333" stroke-width="0.5" stroke-miterlimit="10" stroke-linecap="round" stroke-linejoin="round"/>
<path d="M231.937 125.587C230.541 124.806 229.488 123.458 229.018 121.931C228.642 122.599 228.418 123.001 228.418 123.001C228.418 123.001 228.095 125.215 230.732 126.77C233.37 128.326 234.789 127.752 234.789 127.752C234.789 127.752 235.117 127.21 235.65 126.332C234.374 126.46 233.057 126.215 231.937 125.587Z" fill="#418899"/>
<path d="M252.898 91.7517C247.609 94.281 240.228 103.453 237.786 106.944C236.197 109.217 230.824 118.722 229.018 121.931C229.488 123.458 230.541 124.805 231.937 125.587C233.057 126.214 234.373 126.46 235.65 126.331C237.869 122.672 243.686 113.109 244.597 111.84C245.728 110.267 254.775 104.251 256.772 101.501C258.768 98.752 258.24 89.1971 252.898 91.7517Z" fill="#6ABAD2"/>
<path d="M268.12 89.5088C258.794 89.5088 252.898 91.752 252.898 91.752C252.898 91.752 253.715 108.581 253.428 115.376C253.142 122.171 249.377 131.87 249.377 131.87C249.377 131.87 253.323 139.283 264.801 139.49C276.279 139.697 279.91 134.265 279.91 134.265C279.91 134.265 277.28 121.351 278.245 113.608C279.21 105.866 279.561 91.9899 277.833 91.2058C275.993 90.3709 272.93 89.5088 268.12 89.5088Z" fill="#6ABAD2"/>
<path d="M264.801 137.06C255.558 136.894 251.525 131.408 250.305 129.278C249.767 130.864 249.377 131.87 249.377 131.87C249.377 131.87 253.323 139.283 264.801 139.49C276.279 139.697 279.91 134.265 279.91 134.265C279.91 134.265 279.758 133.519 279.542 132.287C278.375 133.584 274.247 137.231 264.801 137.06Z" fill="#418899"/>
<path d="M278.115 114.224C279.3 109.59 280.119 104.863 280.566 100.101" stroke="#333333" stroke-width="0.5" stroke-miterlimit="10" stroke-linecap="round" stroke-linejoin="round"/>
<path d="M256.834 124.055C259.824 129.82 266.624 133.351 273.06 132.482" stroke="#333333" stroke-width="0.5" stroke-miterlimit="10" stroke-linecap="round" stroke-linejoin="round"/>
<path d="M261.735 91.5899C261.668 92.8937 269.641 96.8612 269.641 96.8612C269.641 96.8612 273.235 93.4848 273.302 92.1805C273.368 90.8766 270.807 90.1861 267.613 90.0231C264.42 89.8601 261.802 90.286 261.735 91.5899Z" fill="#B27449"/>
<path d="M259.508 90.2071C259.508 90.2071 259.081 89.7762 257.907 90.1258C256.733 90.4754 255.916 90.9521 255.916 90.9521C255.916 90.9521 257.013 96.1127 255.532 101.347C254.05 106.582 251.479 109.963 251.479 109.963C251.479 109.963 251.012 111.005 251.246 112.46C251.479 113.914 252.602 115.022 252.602 115.022C252.602 115.022 257.011 109.274 258.644 102.788C260.276 96.3025 259.508 90.2071 259.508 90.2071Z" fill="#F1CC4B"/>
<path d="M285.233 64.1067C281.695 61.3545 279.377 56.992 275.264 55.2101C273.474 54.4342 271.485 54.2267 269.534 54.2562C267.207 54.2912 264.852 54.6616 262.748 55.6568C261.588 56.2052 260.516 56.963 259.627 57.8846L259.647 57.8555C257.323 57.7375 255.051 58.9633 253.588 60.7725C252.124 62.5817 251.408 64.9093 251.226 67.2288C250.9 71.4038 252.266 75.6682 254.874 78.9438C256.185 80.5914 257.874 82.1618 258.118 84.2534C259.017 84.0005 259.818 83.4098 260.326 82.6249C260.765 83.5932 261.534 84.7405 262.573 84.5135C263.092 84.4005 263.463 83.9614 263.814 83.5637C264.379 82.9236 265.008 82.3111 265.788 81.9652C266.568 81.6188 267.529 81.5798 268.241 82.0496C268.934 82.5068 269.33 83.3844 270.115 83.6564C271.123 84.0055 272.14 83.1692 272.787 82.3211C273.434 81.4731 274.089 80.4625 275.139 80.2736C275.499 80.2087 275.87 80.2523 276.235 80.2227C277.024 80.1592 277.749 79.7569 278.378 79.2762C280.764 77.4534 282.021 74.5369 282.984 71.6916C283.286 70.7968 283.572 69.8865 283.654 68.9454C283.786 67.4381 283.393 65.9399 283.004 64.478C283.761 64.5897 284.553 64.4581 285.233 64.1067Z" fill="#5E4028"/>
<path d="M263.64 90.1562C263.64 91.5695 264.285 92.857 267.547 92.857C270.81 92.857 271.455 91.6149 271.455 90.1562C271.455 88.6975 271.935 83.1064 271.935 83.1064H263.16C263.16 83.1064 263.64 88.7429 263.64 90.1562Z" fill="#B27449"/>
<mask id="mask6_17_3189" style="mask-type:luminance" maskUnits="userSpaceOnUse" x="263" y="83" width="9" height="10">
<path d="M263.64 90.1562C263.64 91.5695 264.285 92.857 267.547 92.857C270.81 92.857 271.455 91.6149 271.455 90.1562C271.455 88.6975 271.935 83.1064 271.935 83.1064H263.16C263.16 83.1064 263.64 88.7429 263.64 90.1562Z" fill="white"/>
</mask>
<g mask="url(#mask6_17_3189)">
<path opacity="0.5" d="M269.81 89.0516C273.954 89.0516 277.315 85.834 277.315 81.8648C277.315 77.8956 273.954 74.678 269.81 74.678C265.665 74.678 262.304 77.8956 262.304 81.8648C262.304 85.834 265.665 89.0516 269.81 89.0516Z" fill="#B27449"/>
</g>
<path d="M257.278 73.1876C257.232 69.6791 258.189 66.1451 260.153 63.442C262.043 60.8415 264.945 59.3042 268.388 59.2089C271.832 59.1136 274.501 60.1995 276.633 62.2779C278.983 64.5684 280.137 67.9729 279.861 71.2431C279.739 72.6773 279.363 74.0838 279.29 75.5216C279.16 78.1225 280.018 80.8234 279.16 83.2818C278.42 85.4024 276.467 86.9497 274.322 87.6143C272.177 88.279 269.859 88.1573 267.654 87.7296C264.53 87.1231 261.933 84.903 260.094 82.3484C258.261 79.7996 257.321 76.5049 257.278 73.1876Z" fill="#B27449"/>
<path d="M262.502 79.5581C262.502 80.8275 263.531 81.8563 264.801 81.8563C266.07 81.8563 267.099 80.8271 267.099 79.5581C267.099 78.2887 266.07 77.2595 264.801 77.2595C263.532 77.26 262.502 78.2887 262.502 79.5581Z" fill="#A55D47"/>
<path d="M274.613 79.5581C274.613 80.8275 275.641 81.8563 276.911 81.8563C278.18 81.8563 279.209 80.8271 279.209 79.5581C279.209 78.2887 278.18 77.2595 276.911 77.2595C275.642 77.26 274.613 78.2887 274.613 79.5581Z" fill="#A55D47"/>
<path d="M272.652 73.2334C272.517 74.4855 272.733 75.7731 273.269 76.9126C273.565 77.5414 273.967 78.1706 273.927 78.8639C273.899 79.3333 273.654 79.7855 273.275 80.0638C272.896 80.3421 272.391 80.4416 271.935 80.3271" stroke="#333333" stroke-width="0.5" stroke-miterlimit="10" stroke-linecap="round" stroke-linejoin="round"/>
<path d="M271.22 84.5397C270.512 84.5851 269.793 84.4698 269.198 84.2151" stroke="#333333" stroke-width="0.5" stroke-miterlimit="10" stroke-linecap="round" stroke-linejoin="round"/>
<path d="M268.038 81.582C267.857 82.5608 268.91 83.5065 270.389 83.6944C271.868 83.8819 273.215 83.2404 273.396 82.2616C273.577 81.2828 272.349 81.2891 270.869 81.1016C269.39 80.9137 268.219 80.6031 268.038 81.582Z" fill="#C9413A"/>
<mask id="mask7_17_3189" style="mask-type:luminance" maskUnits="userSpaceOnUse" x="268" y="80" width="6" height="4">
<path d="M268.038 81.582C267.857 82.5608 268.91 83.5065 270.389 83.6944C271.868 83.8819 273.215 83.2404 273.396 82.2616C273.577 81.2828 272.349 81.2891 270.869 81.1016C269.39 80.9137 268.219 80.6031 268.038 81.582Z" fill="white"/>
</mask>
<g mask="url(#mask7_17_3189)">
<path d="M265.688 82.3861C265.294 83.3772 266.522 84.6234 268.431 85.1696C270.341 85.7157 272.207 85.3548 272.601 84.3637C272.995 83.3726 271.767 82.1264 269.858 81.5802C267.949 81.0345 266.082 81.395 265.688 82.3861Z" fill="#F96C4B"/>
</g>
<mask id="mask8_17_3189" style="mask-type:luminance" maskUnits="userSpaceOnUse" x="268" y="80" width="6" height="4">
<path d="M268.038 81.582C267.857 82.5608 268.91 83.5065 270.389 83.6944C271.868 83.8819 273.215 83.2404 273.396 82.2616C273.577 81.2828 272.349 81.2891 270.869 81.1016C269.39 80.9137 268.219 80.6031 268.038 81.582Z" fill="white"/>
</mask>
<g mask="url(#mask8_17_3189)">
<path d="M268.171 80.7584C268.054 81.4253 269.208 81.799 270.683 81.9765C272.158 82.1535 273.345 82.2103 273.463 81.5433C273.58 80.8764 272.428 80.6167 270.954 80.4392C269.48 80.2622 268.289 80.0915 268.171 80.7584Z" fill="white"/>
</g>
<path d="M268.038 81.582C267.857 82.5608 268.91 83.5065 270.389 83.6944C271.868 83.8819 273.215 83.2404 273.396 82.2616C273.577 81.2828 272.349 81.2891 270.869 81.1016C269.39 80.9137 268.219 80.6031 268.038 81.582Z" stroke="#333333" stroke-width="0.5" stroke-miterlimit="10" stroke-linecap="round" stroke-linejoin="round"/>
<path d="M266.68 75.6909C266.68 76.3052 267.178 76.8032 267.793 76.8032C268.407 76.8032 268.905 76.3052 268.905 75.6909C268.905 75.0766 268.407 74.5786 267.793 74.5786C267.178 74.5786 266.68 75.0766 266.68 75.6909Z" fill="#38322E"/>
<path d="M273.93 75.6909C273.93 76.3052 274.428 76.8032 275.042 76.8032C275.656 76.8032 276.155 76.3052 276.155 75.6909C276.155 75.0766 275.656 74.5786 275.042 74.5786C274.428 74.5786 273.93 75.0766 273.93 75.6909Z" fill="#38322E"/>
<path d="M267.288 69.9919C268.756 69.4607 269.793 70.2883 269.916 71.1019C269.916 71.1019 269.004 70.8009 267.617 71.0102C266.23 71.2195 265.105 71.8283 265.105 71.8283C265.105 71.8283 265.819 70.5231 267.288 69.9919Z" fill="#5E4028"/>
<path d="M276.061 69.9919C274.593 69.4607 273.556 70.2883 273.433 71.1019C273.433 71.1019 274.345 70.8009 275.732 71.0102C277.119 71.2195 278.244 71.8283 278.244 71.8283C278.244 71.8283 277.53 70.5231 276.061 69.9919Z" fill="#5E4028"/>
<path d="M261.689 72.3108C263.112 70.8644 264.817 69.5968 265.669 67.7558C265.305 69.3308 264.408 70.7776 263.16 71.805C266.575 71.2503 269.719 69.2018 271.606 66.3026C271.353 67.5533 270.762 68.7337 269.914 69.6871C271.232 70.0058 272.647 69.5936 273.775 68.8409C274.902 68.0882 275.783 67.0231 276.584 65.9289C276.357 67.078 275.827 68.1658 275.061 69.0529C276.04 69.5196 277.265 69.4206 278.155 68.8027C279.046 68.1853 279.568 67.0726 279.474 65.9925C279.396 65.1026 278.941 64.2941 278.457 63.5432C277.373 61.8588 276.036 60.2571 274.245 59.3573C273.333 58.8983 272.332 58.6381 271.326 58.4629C267.841 57.8564 264.01 58.3308 261.233 60.5236C260.15 61.3794 259.263 62.4645 258.516 63.6258C257.76 64.8007 257.135 66.0715 256.788 67.4253C256.5 68.554 256.409 69.7325 256.52 70.8916C256.641 72.1456 256.996 73.3645 257.379 74.5645C257.666 75.4634 258.618 78.482 259.431 76.267C259.999 74.7225 260.496 73.5243 261.689 72.3108Z" fill="#5E4028"/>
<path d="M255.308 77.2173C256.19 79.5895 258.353 81.0073 259.437 80.4798C260.279 80.0707 260.411 78.4908 259.921 76.5963C259.43 74.7013 258.014 72.2905 256.586 72.6505C255.157 73.0106 254.426 74.8452 255.308 77.2173Z" fill="#B27449"/>
<path opacity="0.5" d="M256.518 73.988C257.227 74.2754 257.786 74.8502 258.206 75.4885C258.771 76.3461 259.12 77.3445 259.213 78.3673C258.985 78.1993 258.673 78.1535 258.406 78.2479C258.119 78.3496 257.99 78.5694 257.85 78.8159C257.219 78.5521 256.668 77.6337 256.38 77.0462C256.043 76.3579 255.86 75.5925 255.867 74.8252C255.872 74.4243 255.982 73.7706 256.518 73.988Z" fill="#B27449"/>
<path d="M242.635 66.7575C246.457 63.664 248.901 58.9374 248.901 53.6374C248.901 44.3181 241.347 36.7635 232.028 36.7635C222.708 36.7635 215.154 44.3186 215.154 53.6374C215.154 62.9566 222.708 70.5112 232.028 70.5112C233.915 70.5112 235.727 70.1966 237.422 69.6254C238.429 70.8817 241.444 73.6665 247.85 72.6641C247.85 72.6641 243.342 70.7228 242.635 66.7575Z" fill="#DE582A"/>
<path d="M239.03 61.1212L228.41 63.2332C227.967 63.3212 227.536 63.0334 227.448 62.5903L224.513 47.8344C224.425 47.3913 224.713 46.9604 225.156 46.8724L235.776 44.7604C236.219 44.6723 236.65 44.9601 236.738 45.4032L239.673 60.1591C239.761 60.6022 239.473 61.0326 239.03 61.1212Z" fill="white"/>
<path d="M236.329 49.1342L226.32 51.1246C226.116 51.165 225.919 51.0328 225.879 50.8299L225.424 48.5422C225.384 48.3388 225.516 48.1418 225.719 48.1014L235.728 46.111C235.931 46.0706 236.128 46.2027 236.169 46.4057L236.624 48.6934C236.664 48.8963 236.532 49.0938 236.329 49.1342Z" fill="#DBB53E"/>
<path d="M228.602 53.4213L227.272 53.6855C227.102 53.7191 226.938 53.6093 226.904 53.4395L226.64 52.1101C226.606 51.9403 226.716 51.7755 226.886 51.742L228.215 51.4777C228.385 51.4441 228.55 51.554 228.583 51.7238L228.848 53.0531C228.881 53.2224 228.771 53.3872 228.602 53.4213Z" fill="#6ABAD2"/>
<path d="M231.21 52.9024L229.881 53.1666C229.711 53.2002 229.546 53.0903 229.513 52.9205L229.248 51.5912C229.215 51.4214 229.325 51.2566 229.495 51.223L230.824 50.9588C230.994 50.9252 231.158 51.0351 231.192 51.2049L231.456 52.5342C231.49 52.704 231.38 52.8688 231.21 52.9024Z" fill="#6ABAD2"/>
<path d="M233.819 52.3835L232.49 52.6477C232.32 52.6813 232.155 52.5714 232.122 52.4016L231.858 51.0723C231.824 50.9025 231.934 50.7377 232.104 50.7041L233.433 50.4399C233.603 50.4063 233.768 50.5162 233.801 50.6859L234.065 52.0153C234.099 52.1851 233.989 52.3499 233.819 52.3835Z" fill="#6ABAD2"/>
<path d="M236.428 51.8645L235.099 52.1288C234.929 52.1624 234.764 52.0525 234.73 51.8827L234.466 50.5534C234.433 50.3836 234.543 50.2188 234.712 50.1852L236.042 49.921C236.211 49.8874 236.376 49.9972 236.41 50.167L236.674 51.4963C236.708 51.6661 236.597 51.8309 236.428 51.8645Z" fill="#6ABAD2"/>
<path d="M229.128 56.0667L227.798 56.3309C227.629 56.3645 227.464 56.2546 227.43 56.0848L227.166 54.7555C227.132 54.5857 227.242 54.4209 227.412 54.3873L228.741 54.1231C228.911 54.0895 229.076 54.1994 229.11 54.3692L229.374 55.6985C229.407 55.8683 229.297 56.0331 229.128 56.0667Z" fill="#DBB53E"/>
<path d="M231.577 55.5796L230.248 55.8438C230.078 55.8774 229.913 55.7676 229.879 55.5978L229.615 54.2685C229.582 54.0987 229.691 53.9339 229.861 53.9003L231.191 53.636C231.36 53.6025 231.525 53.7123 231.559 53.8821L231.823 55.2114C231.857 55.3812 231.747 55.546 231.577 55.5796Z" fill="#DBB53E"/>
<path d="M234.026 55.0924L232.697 55.3567C232.527 55.3903 232.362 55.2804 232.329 55.1106L232.065 53.7813C232.031 53.6115 232.141 53.4467 232.311 53.4131L233.64 53.1489C233.81 53.1153 233.975 53.2251 234.008 53.3949L234.272 54.7242C234.306 54.894 234.196 55.0588 234.026 55.0924Z" fill="#DBB53E"/>
<path d="M229.643 58.6579L228.314 58.9221C228.144 58.9557 227.979 58.8458 227.946 58.676L227.681 57.3467C227.648 57.1769 227.758 57.0121 227.927 56.9785L229.257 56.7143C229.427 56.6807 229.591 56.7906 229.625 56.9604L229.889 58.2897C229.923 58.459 229.812 58.6243 229.643 58.6579Z" fill="#DBB53E"/>
<path d="M232.092 58.1705L230.763 58.4348C230.593 58.4684 230.428 58.3585 230.395 58.1887L230.131 56.8594C230.097 56.6896 230.207 56.5248 230.377 56.4912L231.706 56.227C231.876 56.1934 232.041 56.3037 232.074 56.473L232.338 57.8024C232.372 57.9717 232.262 58.1369 232.092 58.1705Z" fill="#DBB53E"/>
<path d="M234.542 57.6835L233.212 57.9477C233.043 57.9813 232.878 57.8715 232.844 57.7017L232.58 56.3723C232.546 56.2026 232.656 56.0378 232.826 56.0042L234.155 55.7399C234.325 55.7063 234.49 55.8162 234.524 55.986L234.788 57.3153C234.822 57.4847 234.712 57.6495 234.542 57.6835Z" fill="#DBB53E"/>
<path d="M230.158 61.2484L228.829 61.5127C228.659 61.5463 228.494 61.4364 228.46 61.2666L228.196 59.9373C228.163 59.7675 228.272 59.6027 228.442 59.5691L229.772 59.3049C229.941 59.2713 230.106 59.3811 230.14 59.5509L230.404 60.8803C230.438 61.05 230.328 61.2149 230.158 61.2484Z" fill="#DBB53E"/>
<path d="M232.608 60.7612L231.278 61.0254C231.109 61.059 230.944 60.9491 230.91 60.7793L230.646 59.4505C230.612 59.2807 230.722 59.1159 230.892 59.0823L232.221 58.8181C232.391 58.7845 232.556 58.8943 232.59 59.0641L232.854 60.3934C232.887 60.5628 232.777 60.7276 232.608 60.7612Z" fill="#DBB53E"/>
<path d="M235.057 60.2741L233.728 60.5383C233.558 60.5719 233.393 60.462 233.36 60.2922L233.095 58.9629C233.062 58.7931 233.172 58.6283 233.341 58.5947L234.671 58.3305C234.841 58.2969 235.005 58.4068 235.039 58.5766L235.303 59.9059C235.337 60.0757 235.227 60.2405 235.057 60.2741Z" fill="#DBB53E"/>
<path d="M237.985 59.692L236.655 59.9562C236.485 59.9898 236.321 59.88 236.287 59.7102L235.508 55.7903C235.474 55.6205 235.584 55.4557 235.754 55.4221L237.083 55.1579C237.253 55.1243 237.417 55.2342 237.451 55.404L238.231 59.3238C238.265 59.4936 238.154 59.6584 237.985 59.692Z" fill="#DE582A"/>
<path d="M236.954 54.5104L235.625 54.7746C235.455 54.8082 235.29 54.6984 235.257 54.5286L234.993 53.1993C234.959 53.0295 235.069 52.8647 235.239 52.8311L236.568 52.5668C236.738 52.5332 236.903 52.6431 236.936 52.8129L237.2 54.1422C237.234 54.3116 237.124 54.4768 236.954 54.5104Z" fill="#DBB53E"/>
<path d="M131.362 89.5109L117.166 85.0831C116.655 84.9233 116.37 84.3794 116.529 83.8677L122.213 65.646C122.373 65.1343 122.917 64.8492 123.428 65.0086L137.624 69.4364C138.135 69.5958 138.42 70.1401 138.261 70.6518L132.577 88.8735C132.417 89.3852 131.873 89.6703 131.362 89.5109Z" fill="#605651"/>
<path d="M121.304 66.4646L122.727 66.9086" stroke="#333333" stroke-width="2" stroke-miterlimit="10" stroke-linecap="round" stroke-linejoin="round"/>
<path d="M120.742 68.2661L122.165 68.7101" stroke="#333333" stroke-width="2" stroke-miterlimit="10" stroke-linecap="round" stroke-linejoin="round"/>
<path d="M120.18 70.0676L121.604 70.5116" stroke="#333333" stroke-width="2" stroke-miterlimit="10" stroke-linecap="round" stroke-linejoin="round"/>
<path d="M119.618 71.8691L121.042 72.3127" stroke="#333333" stroke-width="2" stroke-miterlimit="10" stroke-linecap="round" stroke-linejoin="round"/>
<path d="M119.056 73.6704L120.48 74.114" stroke="#333333" stroke-width="2" stroke-miterlimit="10" stroke-linecap="round" stroke-linejoin="round"/>
<path d="M118.494 75.4714L119.918 75.9154" stroke="#333333" stroke-width="2" stroke-miterlimit="10" stroke-linecap="round" stroke-linejoin="round"/>
<path d="M117.933 77.2729L119.356 77.717" stroke="#333333" stroke-width="2" stroke-miterlimit="10" stroke-linecap="round" stroke-linejoin="round"/>
<path d="M117.371 79.0745L118.794 79.5185" stroke="#333333" stroke-width="2" stroke-miterlimit="10" stroke-linecap="round" stroke-linejoin="round"/>
<path d="M116.809 80.876L118.232 81.32" stroke="#333333" stroke-width="2" stroke-miterlimit="10" stroke-linecap="round" stroke-linejoin="round"/>
<path d="M116.247 82.6775L117.67 83.1215" stroke="#333333" stroke-width="2" stroke-miterlimit="10" stroke-linecap="round" stroke-linejoin="round"/>
<path d="M134.628 72.2889L125.166 69.3369L123.84 73.5854L133.303 76.5374L134.628 72.2889Z" fill="white"/>
<path d="M198.312 63.3271L195.221 66.1143L226.119 100.375L229.21 97.5883L198.312 63.3271Z" fill="#DBB53E"/>
<path d="M196.316 67.3241L197.54 66.22" stroke="#333333" stroke-width="0.5" stroke-miterlimit="10" stroke-linecap="round" stroke-linejoin="round"/>
<path d="M197.692 68.849L198.916 67.7449" stroke="#333333" stroke-width="0.5" stroke-miterlimit="10" stroke-linecap="round" stroke-linejoin="round"/>
<path d="M199.067 70.3742L200.291 69.2705" stroke="#333333" stroke-width="0.5" stroke-miterlimit="10" stroke-linecap="round" stroke-linejoin="round"/>
<path d="M200.442 71.8995L201.666 70.7954" stroke="#333333" stroke-width="0.5" stroke-miterlimit="10" stroke-linecap="round" stroke-linejoin="round"/>
<path d="M201.818 73.4244L203.042 72.3203" stroke="#333333" stroke-width="0.5" stroke-miterlimit="10" stroke-linecap="round" stroke-linejoin="round"/>
<path d="M203.193 74.9494L204.417 73.8457" stroke="#333333" stroke-width="0.5" stroke-miterlimit="10" stroke-linecap="round" stroke-linejoin="round"/>
<path d="M204.568 76.475L205.792 75.3708" stroke="#333333" stroke-width="0.5" stroke-miterlimit="10" stroke-linecap="round" stroke-linejoin="round"/>
<path d="M205.943 77.9999L207.168 76.8958" stroke="#333333" stroke-width="0.5" stroke-miterlimit="10" stroke-linecap="round" stroke-linejoin="round"/>
<path d="M207.319 79.5248L208.543 78.4211" stroke="#333333" stroke-width="0.5" stroke-miterlimit="10" stroke-linecap="round" stroke-linejoin="round"/>
<path d="M208.694 81.0504L209.918 79.9463" stroke="#333333" stroke-width="0.5" stroke-miterlimit="10" stroke-linecap="round" stroke-linejoin="round"/>
<path d="M210.069 82.5753L211.294 81.4712" stroke="#333333" stroke-width="0.5" stroke-miterlimit="10" stroke-linecap="round" stroke-linejoin="round"/>
<path d="M211.445 84.1002L212.669 82.9961" stroke="#333333" stroke-width="0.5" stroke-miterlimit="10" stroke-linecap="round" stroke-linejoin="round"/>
<path d="M212.82 85.6254L214.045 84.5217" stroke="#333333" stroke-width="0.5" stroke-miterlimit="10" stroke-linecap="round" stroke-linejoin="round"/>
<path d="M214.195 87.1508L215.42 86.0466" stroke="#333333" stroke-width="0.5" stroke-miterlimit="10" stroke-linecap="round" stroke-linejoin="round"/>
<path d="M215.571 88.6757L216.795 87.5715" stroke="#333333" stroke-width="0.5" stroke-miterlimit="10" stroke-linecap="round" stroke-linejoin="round"/>
<path d="M216.946 90.2006L218.17 89.0969" stroke="#333333" stroke-width="0.5" stroke-miterlimit="10" stroke-linecap="round" stroke-linejoin="round"/>
<path d="M218.322 91.7262L219.546 90.6221" stroke="#333333" stroke-width="0.5" stroke-miterlimit="10" stroke-linecap="round" stroke-linejoin="round"/>
<path d="M219.697 93.2511L220.921 92.147" stroke="#333333" stroke-width="0.5" stroke-miterlimit="10" stroke-linecap="round" stroke-linejoin="round"/>
<path d="M221.072 94.776L222.296 93.6724" stroke="#333333" stroke-width="0.5" stroke-miterlimit="10" stroke-linecap="round" stroke-linejoin="round"/>
<path d="M222.448 96.3012L223.672 95.1975" stroke="#333333" stroke-width="0.5" stroke-miterlimit="10" stroke-linecap="round" stroke-linejoin="round"/>
<path d="M223.823 97.8265L225.047 96.7224" stroke="#333333" stroke-width="0.5" stroke-miterlimit="10" stroke-linecap="round" stroke-linejoin="round"/>
<path d="M225.198 99.3514L226.422 98.2473" stroke="#333333" stroke-width="0.5" stroke-miterlimit="10" stroke-linecap="round" stroke-linejoin="round"/>
<path d="M61.3731 45.7972L52.9491 38.4083L50.5879 32.7964L50.8221 32.6979C51.3451 32.4777 51.5907 31.8753 51.371 31.3523C51.1508 30.8293 50.5484 30.5837 50.0254 30.8034L43.1028 33.7158C42.5798 33.936 42.3341 34.5384 42.5539 35.0615C42.7741 35.5845 43.3765 35.8301 43.8995 35.6103L44.1338 35.5118L46.4951 41.1237L45.5703 52.3902C45.4422 53.9506 47.0149 55.0901 48.4577 54.4831L60.8065 49.2875C62.2262 48.6901 62.5308 46.8128 61.3731 45.7972Z" fill="#6ABAD2"/>
<path d="M47.9465 51.193L48.8036 40.7551L46.3098 34.8285L48.5785 33.8738L51.0591 39.7694L58.8647 46.6162C59.2297 46.9363 59.1335 47.5278 58.6863 47.7162L48.8563 51.8522C48.4018 52.0442 47.9061 51.6847 47.9465 51.193Z" fill="#6ABAD2"/>
<path d="M50.3967 49.4582C50.5797 49.8931 50.3754 50.3939 49.9405 50.5769C49.5055 50.7598 49.0048 50.5555 48.8218 50.1206C48.6389 49.6857 48.8432 49.1849 49.2781 49.0019C49.7126 48.8194 50.2138 49.0233 50.3967 49.4582Z" fill="#6ABAD2"/>
<path d="M50.3695 46.7587C50.4925 47.0515 50.3554 47.3884 50.0626 47.5115C49.7697 47.6345 49.4329 47.4969 49.3098 47.2045C49.1868 46.9117 49.3244 46.5749 49.6167 46.4518C49.9091 46.3283 50.246 46.4659 50.3695 46.7587Z" fill="#6ABAD2"/>
<path d="M52.2413 49.5218C52.3098 49.6843 52.2336 49.8718 52.0709 49.9399C51.9086 50.0085 51.7214 49.9318 51.6534 49.7692C51.5849 49.6067 51.6615 49.4192 51.8238 49.3511C51.9861 49.283 52.1733 49.3593 52.2413 49.5218Z" fill="#6ABAD2"/>
<path d="M48.9866 38.4692C49.055 38.6317 48.9784 38.8192 48.8161 38.8873C48.6538 38.9559 48.4666 38.8796 48.3986 38.7166C48.3302 38.5541 48.4068 38.3666 48.5691 38.2985C48.7314 38.2304 48.9181 38.3066 48.9866 38.4692Z" fill="#6ABAD2"/>
<path d="M51.9448 41.1586C52.0133 41.3212 51.9367 41.5087 51.7744 41.5768C51.6121 41.6453 51.4249 41.5686 51.3569 41.4061C51.2884 41.2435 51.365 41.056 51.5273 40.9879C51.6896 40.9198 51.8764 40.9961 51.9448 41.1586Z" fill="#6ABAD2"/>
</svg>
