<svg width="664" height="691" viewBox="0 0 664 691" fill="none" xmlns="http://www.w3.org/2000/svg">
<g clip-path="url(#clip0_181_11)">
<path d="M629.252 643.894C629.252 669.909 488.391 691 314.626 691C140.861 691 0 669.909 0 643.894C0 625.477 70.6082 609.522 173.511 601.783C215.945 598.581 263.89 596.788 314.626 596.788C335.483 596.788 355.863 597.092 375.572 597.67C520.169 601.924 629.252 621 629.252 643.894Z" fill="#3F3D56"/>
<path opacity="0.1" d="M274.029 653.518C340.732 653.518 394.805 646.941 394.805 638.829C394.805 630.717 340.732 624.14 274.029 624.14C207.327 624.14 153.253 630.717 153.253 638.829C153.253 646.941 207.327 653.518 274.029 653.518Z" fill="black"/>
<path d="M273.522 649.466C336.581 649.466 387.701 595.04 387.701 527.903C387.701 460.765 336.581 406.339 273.522 406.339C210.463 406.339 159.343 460.765 159.343 527.903C159.343 595.04 210.463 649.466 273.522 649.466Z" fill="#3F3D56"/>
<path d="M309.552 599.828H238.507V664.661H309.552V599.828Z" fill="#265073"/>
<path d="M402.417 615.53L398.357 637.817L424.745 641.869L441.999 631.738L440.984 615.53H402.417Z" fill="#575A89"/>
<path d="M269.462 197.149C269.462 197.149 267.432 220.449 262.358 221.462C257.283 222.475 273.522 262.996 273.522 262.996H297.88L317.164 257.931L308.029 235.644C308.029 235.644 295.85 219.436 304.985 206.266C314.119 193.097 269.462 197.149 269.462 197.149Z" fill="#A0616A"/>
<path opacity="0.1" d="M269.462 197.149C269.462 197.149 267.432 220.449 262.358 221.462C257.283 222.475 273.522 262.996 273.522 262.996H297.88L317.164 257.931L308.029 235.644C308.029 235.644 295.85 219.436 304.985 206.266C314.119 193.097 269.462 197.149 269.462 197.149Z" fill="black"/>
<path d="M218.716 375.442C218.716 375.442 192.328 426.093 213.641 436.223C234.955 446.354 240.029 445.341 240.029 448.38C240.029 451.419 235.97 450.406 238 455.471C240.029 460.536 233.94 480.797 240.029 492.953C246.119 505.109 244.089 514.227 244.089 514.227C244.089 514.227 244.089 515.24 246.119 519.292C248.149 523.344 249.164 526.383 248.149 528.409C247.134 530.435 241.044 543.604 247.134 546.644C253.223 549.683 284.686 551.709 287.731 546.644C290.776 541.578 284.686 538.539 287.731 535.5C290.776 532.461 292.805 531.448 290.776 529.422C288.746 527.396 286.716 502.07 286.716 502.07C286.716 502.07 291.791 472.692 289.761 468.64C287.731 464.588 284.686 460.536 286.716 457.497C288.746 454.458 290.776 455.471 291.791 451.419C292.805 447.367 294.835 438.25 294.835 438.25L305.999 437.237L332.387 442.302C332.387 442.302 361.82 474.719 394.298 484.849C394.298 484.849 403.432 493.966 406.477 493.966C409.522 493.966 409.522 493.966 408.507 495.992C407.492 498.018 404.447 498.018 406.477 500.044C408.507 502.07 411.551 499.031 409.522 502.07C407.492 505.109 405.462 505.109 407.492 507.135C409.522 509.161 406.477 520.305 406.477 521.318C406.477 522.331 397.343 617.555 400.387 619.582C403.432 621.608 446.059 627.686 449.104 619.582C452.148 611.477 447.074 601.347 447.074 601.347C447.074 601.347 462.298 479.784 458.238 471.679C454.178 463.575 439.969 427.106 363.85 403.807C363.85 403.807 342.537 399.754 342.537 396.715C342.537 393.676 340.507 374.429 336.447 373.416C332.387 372.403 309.044 371.39 309.044 371.39L279.611 380.507L239.014 373.416L218.716 375.442Z" fill="#2F2E41"/>
<path d="M254.238 545.631L249.164 563.865C249.164 563.865 245.104 593.243 250.179 600.334C254.165 605.904 261.281 612.724 274.48 613.921C278.179 614.26 281.883 613.328 284.98 611.28C288.076 609.232 290.38 606.191 291.509 602.658C291.661 602.236 291.755 601.795 291.79 601.347C291.79 599.321 288.746 575.008 288.746 575.008L283.671 549.683L282.656 542.591L254.238 545.631Z" fill="#2F2E41"/>
<path d="M402.417 632.751C402.417 632.751 397.343 627.686 396.328 632.751C395.313 637.816 391.253 659.09 398.357 660.103C405.462 661.116 473.462 671.246 480.566 667.194C487.671 663.142 500.865 657.064 492.745 654.024C484.626 650.985 461.283 641.868 461.283 641.868C461.283 641.868 448.089 624.647 446.059 623.634C444.029 622.621 432.865 624.647 427.79 628.699C422.716 632.751 402.417 632.751 402.417 632.751Z" fill="#2F2E41"/>
<path d="M293.82 218.423C311.197 218.423 325.283 204.363 325.283 187.019C325.283 169.675 311.197 155.615 293.82 155.615C276.444 155.615 262.358 169.675 262.358 187.019C262.358 204.363 276.444 218.423 293.82 218.423Z" fill="#A0616A"/>
<path d="M290.776 257.931L278.597 244.761L265.097 218.423C265.097 218.423 255.253 215.383 253.223 220.449C251.194 225.514 214.656 241.722 214.656 241.722C214.656 241.722 223.791 326.816 219.731 334.921C215.671 343.025 208.567 375.442 214.656 378.481C220.746 381.52 249.164 378.481 258.298 382.533C267.432 386.585 293.82 386.585 300.925 381.52C308.029 376.455 310.059 372.403 317.164 375.442C323.212 378.029 337.351 289.577 341.422 263.218C341.765 261.004 341.48 258.738 340.6 256.678C339.719 254.617 338.279 252.843 336.441 251.558C327.334 245.182 310.933 234.195 308.029 235.644C303.97 237.67 290.776 257.931 290.776 257.931Z" fill="#575A89"/>
<path d="M334.417 253.878C336.801 254.473 338.944 255.782 340.561 257.628C342.178 259.474 343.19 261.77 343.461 264.207L351.671 337.96C351.671 337.96 331.372 381.52 321.223 352.142C311.074 322.764 334.417 253.878 334.417 253.878Z" fill="#575A89"/>
<path d="M332.387 345.051L354.716 338.973C354.716 338.973 358.775 367.338 362.835 367.338C366.895 367.338 348.626 383.546 339.492 381.52C330.357 379.494 317.163 372.403 316.148 367.338C315.134 362.272 325.283 340.999 325.283 340.999L332.387 345.051Z" fill="#575A89"/>
<path d="M270.069 200.566C272.209 195.857 271.837 190.365 273.606 185.506C274.553 182.904 276.09 180.555 278.097 178.644C280.104 176.733 282.526 175.311 285.174 174.489C287.823 173.667 290.626 173.468 293.364 173.906C296.103 174.344 298.703 175.409 300.961 177.016C303.237 178.635 305.518 180.91 308.295 180.601C311.285 180.268 313.953 176.938 316.703 178.158C319.75 179.511 318.927 184.963 322.015 186.222C323.64 186.884 325.56 185.864 326.498 184.382C327.317 182.825 327.764 181.1 327.803 179.341C328.229 175.021 328.614 170.448 326.736 166.532C325.947 165.204 325.259 163.819 324.678 162.388C324.349 161.052 324.218 159.676 324.286 158.301C324.269 153.223 323.898 147.926 321.337 143.537C318.496 138.668 313.244 135.554 307.765 134.195C302.285 132.836 296.545 133.045 290.919 133.52C281.619 134.306 271.92 135.99 264.593 141.761C263.597 142.487 262.74 143.386 262.063 144.415C261.419 145.637 260.965 146.949 260.715 148.306C259.131 154.745 256.755 160.964 253.643 166.821C252.146 169.305 250.922 171.942 249.994 174.688C249.217 177.478 249.269 180.658 250.896 183.056C252.22 185.009 254.337 186.05 256 187.646C257.649 189.228 258.42 192.27 260.245 193.468C261.839 194.513 263.748 193.775 265.374 194.883C267.461 196.306 267.611 199.426 270.069 200.566Z" fill="#2F2E41"/>
<path d="M295.85 273.126L298.895 267.048C298.895 267.048 343.551 280.217 352.686 292.374C352.686 292.374 375.014 278.191 387.193 280.217L399.372 282.243L361.82 315.673L314.119 311.621L295.85 273.126Z" fill="#F2F2F2"/>
<path d="M293.82 267.048L252.208 324.79L312.089 354.168C312.089 354.168 317.687 357.207 321.992 354.168L361.82 335.934L399.372 282.243L361.82 301.491C361.82 301.491 357.761 293.387 349.641 297.439L293.82 267.048Z" fill="#265073"/>
<path d="M357.76 369.364L365.88 348.09C365.88 348.09 384.148 324.79 373.999 313.647C363.85 302.504 352.686 346.064 352.686 346.064L357.76 369.364Z" fill="#A0616A"/>
<path d="M264.081 365.969L281.798 351.632C281.798 351.632 309.312 340.626 306.134 325.904C302.956 311.182 271.403 343.273 271.403 343.273L264.081 365.969Z" fill="#A0616A"/>
<path opacity="0.1" d="M220.238 263.502H219.224C219.224 263.502 203.492 244.761 200.447 270.087C197.403 295.413 187.253 379.494 213.641 382.533C240.029 385.572 258.806 369.87 258.806 369.87C258.806 369.87 278.089 340.492 270.985 340.492C267.547 340.492 258.198 338.951 249.671 339.479C240.575 340.043 232.401 342.6 232.925 339.986C233.94 334.921 248.656 270.593 220.238 263.502Z" fill="black"/>
<path d="M218.716 243.748L214.656 241.722C214.656 241.722 198.417 244.761 195.373 270.087C192.328 295.413 182.179 379.494 208.567 382.533C234.955 385.572 270.477 378.481 270.477 378.481C270.477 378.481 277.582 339.986 270.477 339.986C263.373 339.986 226.835 345.051 227.85 339.986C228.865 334.921 247.134 250.839 218.716 243.748Z" fill="#575A89"/>
<path d="M343.044 357.714L354.236 340.593L361.313 368.858L343.044 376.962V357.714Z" fill="#575A89"/>
<path d="M113.137 113.574C128.271 113.574 140.54 101.328 140.54 86.2224C140.54 71.1164 128.271 58.8706 113.137 58.8706C98.0026 58.8706 85.7339 71.1164 85.7339 86.2224C85.7339 101.328 98.0026 113.574 113.137 113.574Z" fill="#F2F2F2"/>
<path d="M145.614 289.841H80.6592V354.675H145.614V289.841Z" fill="#F2F2F2"/>
<path d="M377.551 0L393.992 28.4225L410.432 56.845H377.551H344.671L361.111 28.4225L377.551 0Z" fill="#F2F2F2"/>
<path d="M664 170.421C663.607 182.547 660.649 192.266 655.124 199.579C649.599 206.893 643.036 210.55 635.433 210.551C629.241 210.551 623.814 206.972 619.152 199.814C614.488 192.656 612.156 181.646 612.157 166.783C612.157 163.498 612.235 160.369 612.392 157.396C612.548 154.424 612.744 151.608 612.98 148.948L617.094 110.343H589.938C585.236 159.156 581.376 188.197 578.359 197.467C575.341 206.737 570.227 211.372 563.018 211.372C559.763 211.292 556.658 209.994 554.318 207.735C552.961 206.535 551.889 205.049 551.177 203.385C550.466 201.721 550.133 199.92 550.204 198.113C550.204 194.516 553.044 189.49 558.726 183.035C564.408 176.581 567.563 170.694 568.19 165.375L575.243 110.343H563.841C560.626 110.362 557.462 111.147 554.612 112.631C551.989 113.834 549.706 115.668 547.97 117.97L542.915 125.48H538.8C542.639 113.59 547.361 104.653 552.966 98.6679C558.569 92.6836 565.015 89.6914 572.305 89.6915H662.119V110.343H631.789C630.849 119.73 630.124 129.117 629.614 138.504C629.104 147.891 628.849 157.318 628.85 166.783C628.85 173.198 630.339 178.4 633.318 182.389C636.295 186.379 640.018 188.374 644.486 188.373C647.228 188.373 650.108 187.259 653.126 185.029C654.559 184.026 655.758 182.725 656.641 181.216C657.523 179.708 658.069 178.026 658.24 176.288C658.475 174.568 658.651 173.218 658.769 172.239C658.886 171.262 658.945 170.656 658.945 170.421L664 170.421Z" fill="#265073"/>
<path opacity="0.1" d="M664 170.421C663.607 182.547 660.649 192.266 655.124 199.579C649.599 206.893 643.036 210.55 635.433 210.551C629.241 210.551 623.814 206.972 619.152 199.814C614.488 192.656 612.156 181.646 612.157 166.783C612.157 163.498 612.235 160.369 612.392 157.396C612.548 154.424 612.744 151.608 612.98 148.948L617.094 110.343H589.938C585.236 159.156 581.376 188.197 578.359 197.467C575.341 206.737 570.227 211.372 563.018 211.372C559.763 211.292 556.658 209.994 554.318 207.735C552.961 206.535 551.889 205.049 551.177 203.385C550.466 201.721 550.133 199.92 550.204 198.113C550.204 194.516 553.044 189.49 558.726 183.035C564.408 176.581 567.563 170.694 568.19 165.375L575.243 110.343H563.841C560.626 110.362 557.462 111.147 554.612 112.631C551.989 113.834 549.706 115.668 547.97 117.97L542.915 125.48H538.8C542.639 113.59 547.361 104.653 552.966 98.6679C558.569 92.6836 565.015 89.6914 572.305 89.6915H662.119V110.343H631.789C630.849 119.73 630.124 129.117 629.614 138.504C629.104 147.891 628.849 157.318 628.85 166.783C628.85 173.198 630.339 178.4 633.318 182.389C636.295 186.379 640.018 188.374 644.486 188.373C647.228 188.373 650.108 187.259 653.126 185.029C654.559 184.026 655.758 182.725 656.641 181.216C657.523 179.708 658.069 178.026 658.24 176.288C658.475 174.568 658.651 173.218 658.769 172.239C658.886 171.262 658.945 170.656 658.945 170.421L664 170.421Z" fill="black"/>
<path d="M664 166.755C663.607 178.881 660.649 188.6 655.124 195.913C649.599 203.227 643.036 206.884 635.433 206.884C629.241 206.884 623.814 203.306 619.152 196.148C614.488 188.99 612.156 177.98 612.157 163.117C612.157 159.832 612.235 156.703 612.392 153.73C612.548 150.758 612.744 147.942 612.98 145.282L617.094 106.677H589.938C585.236 155.49 581.376 184.531 578.359 193.801C575.341 203.071 570.227 207.706 563.018 207.706C559.763 207.626 556.658 206.328 554.318 204.068C552.961 202.869 551.889 201.383 551.177 199.719C550.466 198.055 550.133 196.254 550.204 194.446C550.204 190.849 553.044 185.824 558.726 179.368C564.408 172.915 567.563 167.028 568.19 161.709L575.243 106.677H563.841C560.626 106.696 557.462 107.481 554.612 108.965C551.989 110.168 549.706 112.002 547.97 114.304L542.915 121.814H538.8C542.639 109.924 547.361 100.987 552.966 95.0018C558.569 89.0175 565.015 86.0253 572.305 86.0254H662.119V106.677H631.789C630.849 116.064 630.124 125.451 629.614 134.838C629.104 144.225 628.849 153.652 628.85 163.117C628.85 169.532 630.339 174.734 633.318 178.723C636.295 182.713 640.018 184.707 644.486 184.707C647.228 184.707 650.108 183.593 653.126 181.363C654.559 180.36 655.758 179.059 656.641 177.55C657.523 176.042 658.069 174.36 658.24 172.622C658.475 170.902 658.651 169.552 658.769 168.573C658.886 167.596 658.945 166.99 658.945 166.755H664Z" fill="#265073"/>
</g>
<defs>
<clipPath id="clip0_181_11">
<rect width="664" height="691" fill="white"/>
</clipPath>
</defs>
</svg>
